# This file uses centimeters as units for non-parametric coordinates.

mtllib model_benchpress_barbell.mtl
g default
v 2.623708 5.508797 0.204323
v 2.623708 5.411145 0.301975
v 2.623708 5.508797 0.399627
v 2.623708 5.606449 0.301975
v -2.623708 5.508797 0.204323
v -2.623708 5.411145 0.301975
v -2.623708 5.508797 0.399627
v -2.623708 5.606449 0.301975
v 2.623708 5.508797 0.301975
v -2.623708 5.508797 0.301975
vt 0.500000 0.000000
vt 0.343750 0.156250
vt 0.500000 0.312500
vt 0.656250 0.156250
vt 0.375000 0.312500
vt 0.437500 0.312500
vt 0.500000 0.312500
vt 0.562500 0.312500
vt 0.625000 0.312500
vt 0.375000 0.688440
vt 0.437500 0.688440
vt 0.500000 0.688440
vt 0.562500 0.688440
vt 0.625000 0.688440
vt 0.500000 0.687500
vt 0.343750 0.843750
vt 0.500000 1.000000
vt 0.656250 0.843750
vt 0.500000 0.150000
vt 0.500000 0.837500
vn -0.000000 -0.707107 -0.707107
vn -0.000000 -0.707107 -0.707107
vn -0.000000 -0.707107 -0.707107
vn -0.000000 -0.707107 -0.707107
vn -0.000000 -0.707107 0.707107
vn -0.000000 -0.707107 0.707107
vn -0.000000 -0.707107 0.707107
vn -0.000000 -0.707107 0.707107
vn 0.000000 0.707107 0.707107
vn 0.000000 0.707107 0.707107
vn 0.000000 0.707107 0.707107
vn 0.000000 0.707107 0.707107
vn 0.000000 0.707107 -0.707107
vn 0.000000 0.707107 -0.707107
vn 0.000000 0.707107 -0.707107
vn 0.000000 0.707107 -0.707107
vn 1.000000 -0.000000 0.000000
vn 1.000000 -0.000000 0.000000
vn 1.000000 -0.000000 0.000001
vn 1.000000 -0.000000 0.000002
vn 1.000000 -0.000000 0.000002
vn -1.000000 0.000000 -0.000000
vn -1.000000 0.000000 -0.000000
vn -1.000000 0.000000 0.000000
vn -1.000000 0.000000 0.000001
vn -1.000000 0.000000 0.000001
s 1
g pCylinder2
usemtl phong2SG
f 1/5/1 2/6/2 5/10/3
f 5/10/3 2/6/2 6/11/4
s 2
f 2/6/5 3/7/6 6/11/7
f 6/11/7 3/7/6 7/12/8
s 3
f 3/7/9 4/8/10 7/12/11
f 7/12/11 4/8/10 8/13/12
s 4
f 4/8/13 1/9/14 8/13/15
f 8/13/15 1/9/14 5/14/16
s 5
f 2/2/17 1/1/18 9/19/19
f 3/3/20 2/2/17 9/19/19
f 4/4/21 3/3/20 9/19/19
f 1/1/18 4/4/21 9/19/19
s 6
f 5/17/22 6/16/23 10/20/24
f 6/16/23 7/15/25 10/20/24
f 7/15/25 8/18/26 10/20/24
f 8/18/26 5/17/22 10/20/24
g default
v 1.444029 4.413606 -0.261768
v 1.444029 4.797081 -0.694623
v 1.444029 5.337790 -0.899687
v 1.444029 5.911861 -0.829982
v 1.444029 6.387783 -0.501477
v 1.444029 6.656526 0.010571
v 1.444029 6.656526 0.588859
v 1.444029 6.387783 1.100907
v 1.444029 5.911861 1.429412
v 1.444029 5.337790 1.499117
v 1.444029 4.797082 1.294053
v 1.444029 4.413606 0.861199
v 1.444029 4.275213 0.299715
v 1.687617 4.413606 -0.261768
v 1.687617 4.797081 -0.694623
v 1.687617 5.337790 -0.899687
v 1.687617 5.911861 -0.829982
v 1.687617 6.387783 -0.501477
v 1.687617 6.656526 0.010571
v 1.687617 6.656526 0.588859
v 1.687617 6.387783 1.100907
v 1.687617 5.911861 1.429412
v 1.687617 5.337790 1.499117
v 1.687617 4.797082 1.294053
v 1.687617 4.413606 0.861199
v 1.687617 4.275213 0.299715
v 1.444029 5.483424 0.299715
v 1.687617 5.483424 0.299715
vt 0.638353 0.083637
vt 0.588760 0.027659
vt 0.518834 0.001139
vt 0.444593 0.010154
vt 0.383045 0.052637
vt 0.348290 0.118857
vt 0.348290 0.193643
vt 0.383045 0.259863
vt 0.444593 0.302346
vt 0.518834 0.311361
vt 0.588760 0.284841
vt 0.638353 0.228863
vt 0.656250 0.156250
vt 0.375000 0.312500
vt 0.394231 0.312500
vt 0.413462 0.312500
vt 0.432692 0.312500
vt 0.451923 0.312500
vt 0.471154 0.312500
vt 0.490385 0.312500
vt 0.509615 0.312500
vt 0.528846 0.312500
vt 0.548077 0.312500
vt 0.567308 0.312500
vt 0.586539 0.312500
vt 0.605769 0.312500
vt 0.625000 0.312500
vt 0.375000 0.688440
vt 0.394231 0.688440
vt 0.413462 0.688440
vt 0.432692 0.688440
vt 0.451923 0.688440
vt 0.471154 0.688440
vt 0.490385 0.688440
vt 0.509615 0.688440
vt 0.528846 0.688440
vt 0.548077 0.688440
vt 0.567308 0.688440
vt 0.586539 0.688440
vt 0.605769 0.688440
vt 0.625000 0.688440
vt 0.638353 0.771137
vt 0.588760 0.715159
vt 0.518834 0.688639
vt 0.444593 0.697654
vt 0.383045 0.740137
vt 0.348290 0.806357
vt 0.348290 0.881143
vt 0.383045 0.947363
vt 0.444593 0.989846
vt 0.518834 0.998861
vt 0.588760 0.972341
vt 0.638353 0.916363
vt 0.656250 0.843750
vt 0.500000 0.150000
vt 0.500000 0.837500
vn 0.000000 -0.885456 -0.464723
vn 0.000000 -0.568065 -0.822984
vn 0.000000 -0.885456 -0.464723
vn 0.000000 -0.568065 -0.822984
vn 0.000000 -0.120537 -0.992709
vn 0.000000 -0.120537 -0.992709
vn -0.000000 0.354605 -0.935016
vn -0.000000 0.354605 -0.935016
vn -0.000000 0.748511 -0.663123
vn -0.000000 0.748511 -0.663123
vn -0.000000 0.970942 -0.239316
vn -0.000000 0.970942 -0.239316
vn -0.000000 0.970942 0.239316
vn -0.000000 0.970942 0.239316
vn -0.000000 0.748511 0.663123
vn -0.000000 0.748511 0.663123
vn -0.000000 0.354605 0.935016
vn -0.000000 0.354605 0.935016
vn 0.000000 -0.120537 0.992709
vn 0.000000 -0.120537 0.992709
vn 0.000000 -0.568065 0.822984
vn 0.000000 -0.568065 0.822984
vn 0.000000 -0.885456 0.464723
vn 0.000000 -0.885456 0.464723
vn 0.000000 -1.000000 0.000000
vn 0.000000 -1.000000 0.000000
vn -1.000000 -0.000000 0.000000
vn -1.000000 -0.000000 0.000000
vn -1.000000 -0.000000 0.000000
vn -1.000000 -0.000000 0.000000
vn -1.000000 -0.000000 0.000000
vn -1.000000 -0.000000 0.000000
vn -1.000000 -0.000000 0.000000
vn -1.000000 -0.000000 0.000000
vn -1.000000 -0.000000 0.000000
vn -1.000000 -0.000000 0.000000
vn -1.000000 -0.000000 0.000000
vn -1.000000 -0.000000 0.000000
vn -1.000000 -0.000000 0.000000
vn -1.000000 -0.000000 0.000000
vn 1.000000 0.000000 0.000000
vn 1.000000 0.000000 0.000000
vn 1.000000 0.000000 0.000000
vn 1.000000 0.000000 0.000000
vn 1.000000 0.000000 0.000000
vn 1.000000 0.000000 0.000000
vn 1.000000 0.000000 0.000000
vn 1.000000 0.000000 0.000000
vn 1.000000 0.000000 0.000000
vn 1.000000 0.000000 0.000000
vn 1.000000 0.000000 0.000000
vn 1.000000 0.000000 0.000000
vn 1.000000 0.000000 0.000000
vn 1.000000 0.000000 0.000000
s 1
g pCylinder3
usemtl phong4SG
f 11/34/27 12/35/28 24/48/29
f 24/48/29 12/35/28 25/49/30
f 12/35/28 13/36/31 25/49/30
f 25/49/30 13/36/31 26/50/32
f 13/36/31 14/37/33 26/50/32
f 26/50/32 14/37/33 27/51/34
f 14/37/33 15/38/35 27/51/34
f 27/51/34 15/38/35 28/52/36
f 15/38/35 16/39/37 28/52/36
f 28/52/36 16/39/37 29/53/38
f 16/39/37 17/40/39 29/53/38
f 29/53/38 17/40/39 30/54/40
f 17/40/39 18/41/41 30/54/40
f 30/54/40 18/41/41 31/55/42
f 18/41/41 19/42/43 31/55/42
f 31/55/42 19/42/43 32/56/44
f 19/42/43 20/43/45 32/56/44
f 32/56/44 20/43/45 33/57/46
f 20/43/45 21/44/47 33/57/46
f 33/57/46 21/44/47 34/58/48
f 21/44/47 22/45/49 34/58/48
f 34/58/48 22/45/49 35/59/50
f 22/45/49 23/46/51 35/59/50
f 35/59/50 23/46/51 36/60/52
f 23/46/51 11/47/27 36/60/52
f 36/60/52 11/47/27 24/61/29
s 2
f 12/22/53 11/21/54 37/75/55
f 13/23/56 12/22/53 37/75/55
f 14/24/57 13/23/56 37/75/55
f 15/25/58 14/24/57 37/75/55
f 16/26/59 15/25/58 37/75/55
f 17/27/60 16/26/59 37/75/55
f 18/28/61 17/27/60 37/75/55
f 19/29/62 18/28/61 37/75/55
f 20/30/63 19/29/62 37/75/55
f 21/31/64 20/30/63 37/75/55
f 22/32/65 21/31/64 37/75/55
f 23/33/66 22/32/65 37/75/55
f 11/21/54 23/33/66 37/75/55
s 3
f 24/73/67 25/72/68 38/76/69
f 25/72/68 26/71/70 38/76/69
f 26/71/70 27/70/71 38/76/69
f 27/70/71 28/69/72 38/76/69
f 28/69/72 29/68/73 38/76/69
f 29/68/73 30/67/74 38/76/69
f 30/67/74 31/66/75 38/76/69
f 31/66/75 32/65/76 38/76/69
f 32/65/76 33/64/77 38/76/69
f 33/64/77 34/63/78 38/76/69
f 34/63/78 35/62/79 38/76/69
f 35/62/79 36/74/80 38/76/69
f 36/74/80 24/73/67 38/76/69
g default
v 1.881431 4.413606 -0.261768
v 1.881431 4.797081 -0.694623
v 1.881431 5.337790 -0.899687
v 1.881431 5.911861 -0.829982
v 1.881431 6.387783 -0.501477
v 1.881431 6.656526 0.010571
v 1.881431 6.656526 0.588859
v 1.881431 6.387783 1.100907
v 1.881431 5.911861 1.429412
v 1.881431 5.337790 1.499117
v 1.881431 4.797082 1.294053
v 1.881431 4.413606 0.861199
v 1.881431 4.275213 0.299715
v 2.125019 4.413606 -0.261768
v 2.125019 4.797081 -0.694623
v 2.125019 5.337790 -0.899687
v 2.125019 5.911861 -0.829982
v 2.125019 6.387783 -0.501477
v 2.125019 6.656526 0.010571
v 2.125019 6.656526 0.588859
v 2.125019 6.387783 1.100907
v 2.125019 5.911861 1.429412
v 2.125019 5.337790 1.499117
v 2.125019 4.797082 1.294053
v 2.125019 4.413606 0.861199
v 2.125019 4.275213 0.299715
v 1.881431 5.483424 0.299715
v 2.125019 5.483424 0.299715
vt 0.638353 0.083637
vt 0.588760 0.027659
vt 0.518834 0.001139
vt 0.444593 0.010154
vt 0.383045 0.052637
vt 0.348290 0.118857
vt 0.348290 0.193643
vt 0.383045 0.259863
vt 0.444593 0.302346
vt 0.518834 0.311361
vt 0.588760 0.284841
vt 0.638353 0.228863
vt 0.656250 0.156250
vt 0.375000 0.312500
vt 0.394231 0.312500
vt 0.413462 0.312500
vt 0.432692 0.312500
vt 0.451923 0.312500
vt 0.471154 0.312500
vt 0.490385 0.312500
vt 0.509615 0.312500
vt 0.528846 0.312500
vt 0.548077 0.312500
vt 0.567308 0.312500
vt 0.586539 0.312500
vt 0.605769 0.312500
vt 0.625000 0.312500
vt 0.375000 0.688440
vt 0.394231 0.688440
vt 0.413462 0.688440
vt 0.432692 0.688440
vt 0.451923 0.688440
vt 0.471154 0.688440
vt 0.490385 0.688440
vt 0.509615 0.688440
vt 0.528846 0.688440
vt 0.548077 0.688440
vt 0.567308 0.688440
vt 0.586539 0.688440
vt 0.605769 0.688440
vt 0.625000 0.688440
vt 0.638353 0.771137
vt 0.588760 0.715159
vt 0.518834 0.688639
vt 0.444593 0.697654
vt 0.383045 0.740137
vt 0.348290 0.806357
vt 0.348290 0.881143
vt 0.383045 0.947363
vt 0.444593 0.989846
vt 0.518834 0.998861
vt 0.588760 0.972341
vt 0.638353 0.916363
vt 0.656250 0.843750
vt 0.500000 0.150000
vt 0.500000 0.837500
vn 0.000000 -0.885456 -0.464723
vn 0.000000 -0.568065 -0.822984
vn 0.000000 -0.885456 -0.464723
vn 0.000000 -0.568065 -0.822984
vn 0.000000 -0.120537 -0.992709
vn 0.000000 -0.120537 -0.992709
vn -0.000000 0.354605 -0.935016
vn -0.000000 0.354605 -0.935016
vn -0.000000 0.748511 -0.663123
vn -0.000000 0.748511 -0.663123
vn -0.000000 0.970942 -0.239316
vn -0.000000 0.970942 -0.239316
vn -0.000000 0.970942 0.239316
vn -0.000000 0.970942 0.239316
vn -0.000000 0.748511 0.663123
vn -0.000000 0.748511 0.663123
vn -0.000000 0.354605 0.935016
vn -0.000000 0.354605 0.935016
vn 0.000000 -0.120537 0.992709
vn 0.000000 -0.120537 0.992709
vn 0.000000 -0.568065 0.822984
vn 0.000000 -0.568065 0.822984
vn 0.000000 -0.885456 0.464723
vn 0.000000 -0.885456 0.464723
vn 0.000000 -1.000000 0.000000
vn 0.000000 -1.000000 0.000000
vn -1.000000 -0.000000 0.000000
vn -1.000000 -0.000000 0.000000
vn -1.000000 -0.000000 0.000000
vn -1.000000 -0.000000 0.000000
vn -1.000000 -0.000000 0.000000
vn -1.000000 -0.000000 0.000000
vn -1.000000 -0.000000 0.000000
vn -1.000000 -0.000000 0.000000
vn -1.000000 -0.000000 0.000000
vn -1.000000 -0.000000 0.000000
vn -1.000000 -0.000000 0.000000
vn -1.000000 -0.000000 0.000000
vn -1.000000 -0.000000 0.000000
vn -1.000000 -0.000000 0.000000
vn 1.000000 0.000000 0.000000
vn 1.000000 0.000000 0.000000
vn 1.000000 0.000000 0.000000
vn 1.000000 0.000000 0.000000
vn 1.000000 0.000000 0.000000
vn 1.000000 0.000000 0.000000
vn 1.000000 0.000000 0.000000
vn 1.000000 0.000000 0.000000
vn 1.000000 0.000000 0.000000
vn 1.000000 0.000000 0.000000
vn 1.000000 0.000000 0.000000
vn 1.000000 0.000000 0.000000
vn 1.000000 0.000000 0.000000
vn 1.000000 0.000000 0.000000
s 1
g pasted__pCylinder3 group17
usemtl phong3SG
f 39/90/81 40/91/82 52/104/83
f 52/104/83 40/91/82 53/105/84
f 40/91/82 41/92/85 53/105/84
f 53/105/84 41/92/85 54/106/86
f 41/92/85 42/93/87 54/106/86
f 54/106/86 42/93/87 55/107/88
f 42/93/87 43/94/89 55/107/88
f 55/107/88 43/94/89 56/108/90
f 43/94/89 44/95/91 56/108/90
f 56/108/90 44/95/91 57/109/92
f 44/95/91 45/96/93 57/109/92
f 57/109/92 45/96/93 58/110/94
f 45/96/93 46/97/95 58/110/94
f 58/110/94 46/97/95 59/111/96
f 46/97/95 47/98/97 59/111/96
f 59/111/96 47/98/97 60/112/98
f 47/98/97 48/99/99 60/112/98
f 60/112/98 48/99/99 61/113/100
f 48/99/99 49/100/101 61/113/100
f 61/113/100 49/100/101 62/114/102
f 49/100/101 50/101/103 62/114/102
f 62/114/102 50/101/103 63/115/104
f 50/101/103 51/102/105 63/115/104
f 63/115/104 51/102/105 64/116/106
f 51/102/105 39/103/81 64/116/106
f 64/116/106 39/103/81 52/117/83
s 2
f 40/78/107 39/77/108 65/131/109
f 41/79/110 40/78/107 65/131/109
f 42/80/111 41/79/110 65/131/109
f 43/81/112 42/80/111 65/131/109
f 44/82/113 43/81/112 65/131/109
f 45/83/114 44/82/113 65/131/109
f 46/84/115 45/83/114 65/131/109
f 47/85/116 46/84/115 65/131/109
f 48/86/117 47/85/116 65/131/109
f 49/87/118 48/86/117 65/131/109
f 50/88/119 49/87/118 65/131/109
f 51/89/120 50/88/119 65/131/109
f 39/77/108 51/89/120 65/131/109
s 3
f 52/129/121 53/128/122 66/132/123
f 53/128/122 54/127/124 66/132/123
f 54/127/124 55/126/125 66/132/123
f 55/126/125 56/125/126 66/132/123
f 56/125/126 57/124/127 66/132/123
f 57/124/127 58/123/128 66/132/123
f 58/123/128 59/122/129 66/132/123
f 59/122/129 60/121/130 66/132/123
f 60/121/130 61/120/131 66/132/123
f 61/120/131 62/119/132 66/132/123
f 62/119/132 63/118/133 66/132/123
f 63/118/133 64/130/134 66/132/123
f 64/130/134 52/129/121 66/132/123
g default
v -2.257339 4.413606 -0.261768
v -2.257339 4.797081 -0.694623
v -2.257339 5.337790 -0.899687
v -2.257339 5.911861 -0.829982
v -2.257339 6.387783 -0.501477
v -2.257339 6.656526 0.010571
v -2.257339 6.656526 0.588859
v -2.257339 6.387783 1.100907
v -2.257339 5.911861 1.429412
v -2.257339 5.337790 1.499117
v -2.257339 4.797082 1.294053
v -2.257339 4.413606 0.861199
v -2.257339 4.275213 0.299715
v -2.013751 4.413606 -0.261768
v -2.013751 4.797081 -0.694623
v -2.013751 5.337790 -0.899687
v -2.013751 5.911861 -0.829982
v -2.013751 6.387783 -0.501477
v -2.013751 6.656526 0.010571
v -2.013751 6.656526 0.588859
v -2.013751 6.387783 1.100907
v -2.013751 5.911861 1.429412
v -2.013751 5.337790 1.499117
v -2.013751 4.797082 1.294053
v -2.013751 4.413606 0.861199
v -2.013751 4.275213 0.299715
v -2.257339 5.483424 0.299715
v -2.013751 5.483424 0.299715
vt 0.638353 0.083637
vt 0.588760 0.027659
vt 0.518834 0.001139
vt 0.444593 0.010154
vt 0.383045 0.052637
vt 0.348290 0.118857
vt 0.348290 0.193643
vt 0.383045 0.259863
vt 0.444593 0.302346
vt 0.518834 0.311361
vt 0.588760 0.284841
vt 0.638353 0.228863
vt 0.656250 0.156250
vt 0.375000 0.312500
vt 0.394231 0.312500
vt 0.413462 0.312500
vt 0.432692 0.312500
vt 0.451923 0.312500
vt 0.471154 0.312500
vt 0.490385 0.312500
vt 0.509615 0.312500
vt 0.528846 0.312500
vt 0.548077 0.312500
vt 0.567308 0.312500
vt 0.586539 0.312500
vt 0.605769 0.312500
vt 0.625000 0.312500
vt 0.375000 0.688440
vt 0.394231 0.688440
vt 0.413462 0.688440
vt 0.432692 0.688440
vt 0.451923 0.688440
vt 0.471154 0.688440
vt 0.490385 0.688440
vt 0.509615 0.688440
vt 0.528846 0.688440
vt 0.548077 0.688440
vt 0.567308 0.688440
vt 0.586539 0.688440
vt 0.605769 0.688440
vt 0.625000 0.688440
vt 0.638353 0.771137
vt 0.588760 0.715159
vt 0.518834 0.688639
vt 0.444593 0.697654
vt 0.383045 0.740137
vt 0.348290 0.806357
vt 0.348290 0.881143
vt 0.383045 0.947363
vt 0.444593 0.989846
vt 0.518834 0.998861
vt 0.588760 0.972341
vt 0.638353 0.916363
vt 0.656250 0.843750
vt 0.500000 0.150000
vt 0.500000 0.837500
vn 0.000000 -0.885456 -0.464723
vn 0.000000 -0.568065 -0.822984
vn 0.000000 -0.885456 -0.464723
vn 0.000000 -0.568065 -0.822984
vn 0.000000 -0.120537 -0.992709
vn 0.000000 -0.120537 -0.992709
vn -0.000000 0.354605 -0.935016
vn -0.000000 0.354605 -0.935016
vn -0.000000 0.748511 -0.663123
vn -0.000000 0.748511 -0.663123
vn -0.000000 0.970942 -0.239316
vn -0.000000 0.970942 -0.239316
vn -0.000000 0.970942 0.239316
vn -0.000000 0.970942 0.239316
vn -0.000000 0.748511 0.663123
vn -0.000000 0.748511 0.663123
vn -0.000000 0.354605 0.935016
vn -0.000000 0.354605 0.935016
vn 0.000000 -0.120537 0.992709
vn 0.000000 -0.120537 0.992709
vn 0.000000 -0.568065 0.822984
vn 0.000000 -0.568065 0.822984
vn 0.000000 -0.885456 0.464723
vn 0.000000 -0.885456 0.464723
vn 0.000000 -1.000000 0.000000
vn 0.000000 -1.000000 0.000000
vn -1.000000 -0.000000 0.000000
vn -1.000000 -0.000000 0.000000
vn -1.000000 -0.000000 0.000000
vn -1.000000 -0.000000 0.000000
vn -1.000000 -0.000000 0.000000
vn -1.000000 -0.000000 0.000000
vn -1.000000 -0.000000 0.000000
vn -1.000000 -0.000000 0.000000
vn -1.000000 -0.000000 0.000000
vn -1.000000 -0.000000 0.000000
vn -1.000000 -0.000000 0.000000
vn -1.000000 -0.000000 0.000000
vn -1.000000 -0.000000 0.000000
vn -1.000000 -0.000000 0.000000
vn 1.000000 0.000000 0.000000
vn 1.000000 0.000000 0.000000
vn 1.000000 0.000000 0.000000
vn 1.000000 0.000000 0.000000
vn 1.000000 0.000000 0.000000
vn 1.000000 0.000000 0.000000
vn 1.000000 0.000000 0.000000
vn 1.000000 0.000000 0.000000
vn 1.000000 0.000000 0.000000
vn 1.000000 0.000000 0.000000
vn 1.000000 0.000000 0.000000
vn 1.000000 0.000000 0.000000
vn 1.000000 0.000000 0.000000
vn 1.000000 0.000000 0.000000
s 1
g pasted__pCylinder3 group18
usemtl phong3SG
f 67/146/135 68/147/136 80/160/137
f 80/160/137 68/147/136 81/161/138
f 68/147/136 69/148/139 81/161/138
f 81/161/138 69/148/139 82/162/140
f 69/148/139 70/149/141 82/162/140
f 82/162/140 70/149/141 83/163/142
f 70/149/141 71/150/143 83/163/142
f 83/163/142 71/150/143 84/164/144
f 71/150/143 72/151/145 84/164/144
f 84/164/144 72/151/145 85/165/146
f 72/151/145 73/152/147 85/165/146
f 85/165/146 73/152/147 86/166/148
f 73/152/147 74/153/149 86/166/148
f 86/166/148 74/153/149 87/167/150
f 74/153/149 75/154/151 87/167/150
f 87/167/150 75/154/151 88/168/152
f 75/154/151 76/155/153 88/168/152
f 88/168/152 76/155/153 89/169/154
f 76/155/153 77/156/155 89/169/154
f 89/169/154 77/156/155 90/170/156
f 77/156/155 78/157/157 90/170/156
f 90/170/156 78/157/157 91/171/158
f 78/157/157 79/158/159 91/171/158
f 91/171/158 79/158/159 92/172/160
f 79/158/159 67/159/135 92/172/160
f 92/172/160 67/159/135 80/173/137
s 2
f 68/134/161 67/133/162 93/187/163
f 69/135/164 68/134/161 93/187/163
f 70/136/165 69/135/164 93/187/163
f 71/137/166 70/136/165 93/187/163
f 72/138/167 71/137/166 93/187/163
f 73/139/168 72/138/167 93/187/163
f 74/140/169 73/139/168 93/187/163
f 75/141/170 74/140/169 93/187/163
f 76/142/171 75/141/170 93/187/163
f 77/143/172 76/142/171 93/187/163
f 78/144/173 77/143/172 93/187/163
f 79/145/174 78/144/173 93/187/163
f 67/133/162 79/145/174 93/187/163
s 3
f 80/185/175 81/184/176 94/188/177
f 81/184/176 82/183/178 94/188/177
f 82/183/178 83/182/179 94/188/177
f 83/182/179 84/181/180 94/188/177
f 84/181/180 85/180/181 94/188/177
f 85/180/181 86/179/182 94/188/177
f 86/179/182 87/178/183 94/188/177
f 87/178/183 88/177/184 94/188/177
f 88/177/184 89/176/185 94/188/177
f 89/176/185 90/175/186 94/188/177
f 90/175/186 91/174/187 94/188/177
f 91/174/187 92/186/188 94/188/177
f 92/186/188 80/185/175 94/188/177
g default
v -1.819938 4.413606 -0.261768
v -1.819938 4.797081 -0.694623
v -1.819938 5.337790 -0.899687
v -1.819938 5.911861 -0.829982
v -1.819938 6.387783 -0.501477
v -1.819938 6.656526 0.010571
v -1.819938 6.656526 0.588859
v -1.819938 6.387783 1.100907
v -1.819938 5.911861 1.429412
v -1.819938 5.337790 1.499117
v -1.819938 4.797082 1.294053
v -1.819938 4.413606 0.861199
v -1.819938 4.275213 0.299715
v -1.576349 4.413606 -0.261768
v -1.576349 4.797081 -0.694623
v -1.576349 5.337790 -0.899687
v -1.576349 5.911861 -0.829982
v -1.576349 6.387783 -0.501477
v -1.576349 6.656526 0.010571
v -1.576349 6.656526 0.588859
v -1.576349 6.387783 1.100907
v -1.576349 5.911861 1.429412
v -1.576349 5.337790 1.499117
v -1.576349 4.797082 1.294053
v -1.576349 4.413606 0.861199
v -1.576349 4.275213 0.299715
v -1.819938 5.483424 0.299715
v -1.576349 5.483424 0.299715
vt 0.638353 0.083637
vt 0.588760 0.027659
vt 0.518834 0.001139
vt 0.444593 0.010154
vt 0.383045 0.052637
vt 0.348290 0.118857
vt 0.348290 0.193643
vt 0.383045 0.259863
vt 0.444593 0.302346
vt 0.518834 0.311361
vt 0.588760 0.284841
vt 0.638353 0.228863
vt 0.656250 0.156250
vt 0.375000 0.312500
vt 0.394231 0.312500
vt 0.413462 0.312500
vt 0.432692 0.312500
vt 0.451923 0.312500
vt 0.471154 0.312500
vt 0.490385 0.312500
vt 0.509615 0.312500
vt 0.528846 0.312500
vt 0.548077 0.312500
vt 0.567308 0.312500
vt 0.586539 0.312500
vt 0.605769 0.312500
vt 0.625000 0.312500
vt 0.375000 0.688440
vt 0.394231 0.688440
vt 0.413462 0.688440
vt 0.432692 0.688440
vt 0.451923 0.688440
vt 0.471154 0.688440
vt 0.490385 0.688440
vt 0.509615 0.688440
vt 0.528846 0.688440
vt 0.548077 0.688440
vt 0.567308 0.688440
vt 0.586539 0.688440
vt 0.605769 0.688440
vt 0.625000 0.688440
vt 0.638353 0.771137
vt 0.588760 0.715159
vt 0.518834 0.688639
vt 0.444593 0.697654
vt 0.383045 0.740137
vt 0.348290 0.806357
vt 0.348290 0.881143
vt 0.383045 0.947363
vt 0.444593 0.989846
vt 0.518834 0.998861
vt 0.588760 0.972341
vt 0.638353 0.916363
vt 0.656250 0.843750
vt 0.500000 0.150000
vt 0.500000 0.837500
vn 0.000000 -0.885456 -0.464723
vn 0.000000 -0.568065 -0.822984
vn 0.000000 -0.885456 -0.464723
vn 0.000000 -0.568065 -0.822984
vn 0.000000 -0.120537 -0.992709
vn 0.000000 -0.120537 -0.992709
vn -0.000000 0.354605 -0.935016
vn -0.000000 0.354605 -0.935016
vn -0.000000 0.748511 -0.663123
vn -0.000000 0.748511 -0.663123
vn -0.000000 0.970942 -0.239316
vn -0.000000 0.970942 -0.239316
vn -0.000000 0.970942 0.239316
vn -0.000000 0.970942 0.239316
vn -0.000000 0.748511 0.663123
vn -0.000000 0.748511 0.663123
vn -0.000000 0.354605 0.935016
vn -0.000000 0.354605 0.935016
vn 0.000000 -0.120537 0.992709
vn 0.000000 -0.120537 0.992709
vn 0.000000 -0.568065 0.822984
vn 0.000000 -0.568065 0.822984
vn 0.000000 -0.885456 0.464723
vn 0.000000 -0.885456 0.464723
vn 0.000000 -1.000000 0.000000
vn 0.000000 -1.000000 0.000000
vn -1.000000 -0.000000 0.000000
vn -1.000000 -0.000000 0.000000
vn -1.000000 -0.000000 0.000000
vn -1.000000 -0.000000 0.000000
vn -1.000000 -0.000000 0.000000
vn -1.000000 -0.000000 0.000000
vn -1.000000 -0.000000 0.000000
vn -1.000000 -0.000000 0.000000
vn -1.000000 -0.000000 0.000000
vn -1.000000 -0.000000 0.000000
vn -1.000000 -0.000000 0.000000
vn -1.000000 -0.000000 0.000000
vn -1.000000 -0.000000 0.000000
vn -1.000000 -0.000000 0.000000
vn 1.000000 0.000000 0.000000
vn 1.000000 0.000000 0.000000
vn 1.000000 0.000000 0.000000
vn 1.000000 0.000000 0.000000
vn 1.000000 0.000000 0.000000
vn 1.000000 0.000000 0.000000
vn 1.000000 0.000000 0.000000
vn 1.000000 0.000000 0.000000
vn 1.000000 0.000000 0.000000
vn 1.000000 0.000000 0.000000
vn 1.000000 0.000000 0.000000
vn 1.000000 0.000000 0.000000
vn 1.000000 0.000000 0.000000
vn 1.000000 0.000000 0.000000
s 1
g group18 pasted__pasted__pCylinder3 pasted__group17
usemtl phong4SG
f 95/202/189 96/203/190 108/216/191
f 108/216/191 96/203/190 109/217/192
f 96/203/190 97/204/193 109/217/192
f 109/217/192 97/204/193 110/218/194
f 97/204/193 98/205/195 110/218/194
f 110/218/194 98/205/195 111/219/196
f 98/205/195 99/206/197 111/219/196
f 111/219/196 99/206/197 112/220/198
f 99/206/197 100/207/199 112/220/198
f 112/220/198 100/207/199 113/221/200
f 100/207/199 101/208/201 113/221/200
f 113/221/200 101/208/201 114/222/202
f 101/208/201 102/209/203 114/222/202
f 114/222/202 102/209/203 115/223/204
f 102/209/203 103/210/205 115/223/204
f 115/223/204 103/210/205 116/224/206
f 103/210/205 104/211/207 116/224/206
f 116/224/206 104/211/207 117/225/208
f 104/211/207 105/212/209 117/225/208
f 117/225/208 105/212/209 118/226/210
f 105/212/209 106/213/211 118/226/210
f 118/226/210 106/213/211 119/227/212
f 106/213/211 107/214/213 119/227/212
f 119/227/212 107/214/213 120/228/214
f 107/214/213 95/215/189 120/228/214
f 120/228/214 95/215/189 108/229/191
s 2
f 96/190/215 95/189/216 121/243/217
f 97/191/218 96/190/215 121/243/217
f 98/192/219 97/191/218 121/243/217
f 99/193/220 98/192/219 121/243/217
f 100/194/221 99/193/220 121/243/217
f 101/195/222 100/194/221 121/243/217
f 102/196/223 101/195/222 121/243/217
f 103/197/224 102/196/223 121/243/217
f 104/198/225 103/197/224 121/243/217
f 105/199/226 104/198/225 121/243/217
f 106/200/227 105/199/226 121/243/217
f 107/201/228 106/200/227 121/243/217
f 95/189/216 107/201/228 121/243/217
s 3
f 108/241/229 109/240/230 122/244/231
f 109/240/230 110/239/232 122/244/231
f 110/239/232 111/238/233 122/244/231
f 111/238/233 112/237/234 122/244/231
f 112/237/234 113/236/235 122/244/231
f 113/236/235 114/235/236 122/244/231
f 114/235/236 115/234/237 122/244/231
f 115/234/237 116/233/238 122/244/231
f 116/233/238 117/232/239 122/244/231
f 117/232/239 118/231/240 122/244/231
f 118/231/240 119/230/241 122/244/231
f 119/230/241 120/242/242 122/244/231
f 120/242/242 108/241/229 122/244/231
