# This file uses centimeters as units for non-parametric coordinates.

mtllib model_slot_rainbowdrum_x5.mtl
g default
v -0.186462 -0.464973 -0.479234
v -0.186462 -0.094484 -0.661012
v -0.186462 0.312094 -0.590307
v -0.186462 0.599463 -0.294124
v -0.186462 0.657857 0.114404
v -0.186462 0.464973 0.479234
v -0.186462 0.094484 0.661012
v -0.186462 -0.312094 0.590307
v -0.186462 -0.599463 0.294124
v -0.186462 -0.657857 -0.114404
v 0.186462 -0.464973 -0.479234
v 0.186462 -0.094484 -0.661012
v 0.186462 0.312094 -0.590307
v 0.186462 0.599463 -0.294124
v 0.186462 0.657857 0.114404
v 0.186462 0.464973 0.479234
v 0.186462 0.094484 0.661012
v 0.186462 -0.312094 0.590307
v 0.186462 -0.599463 0.294124
v 0.186462 -0.657857 -0.114404
v -0.186462 0.000000 0.000000
v 0.186462 0.000000 0.000000
vt 0.283412 0.751975
vt 0.205287 0.695214
vt 0.108719 0.695214
vt 0.030594 0.751975
vt 0.000753 0.843817
vt 0.030594 0.935658
vt 0.108719 0.992420
vt 0.205287 0.992420
vt 0.283412 0.935658
vt 0.313253 0.843817
vt 1.001664 -4.982591
vt 0.998817 -3.986678
vt 0.995970 -2.990765
vt 0.993123 -1.994851
vt 0.990276 -0.998939
vt 0.987429 -0.003026
vt 0.984583 0.992885
vt 0.981735 1.988798
vt 0.978889 2.984710
vt 0.976042 3.980621
vt 0.973195 4.976533
vt 0.007924 -4.974034
vt 0.005077 -3.978122
vt 0.002230 -2.982208
vt -0.000616 -1.986295
vt -0.003463 -0.990382
vt -0.006310 0.005531
vt -0.009157 1.001442
vt -0.012004 1.997355
vt -0.014851 2.993266
vt -0.017698 3.989177
vt -0.020544 4.985089
vt 0.284986 0.751909
vt 0.206860 0.695147
vt 0.110293 0.695147
vt 0.032168 0.751909
vt 0.002327 0.843750
vt 0.032168 0.935591
vt 0.110293 0.992353
vt 0.206861 0.992353
vt 0.284986 0.935591
vt 0.314827 0.843750
vt 0.157003 0.837567
vt 0.158577 0.837500
vn 0.000000 -0.440483 -0.897761
vn 0.000000 -0.440483 -0.897761
vn 0.000000 -0.440483 -0.897761
vn 0.000000 -0.440483 -0.897761
vn 0.000000 0.171333 -0.985213
vn 0.000000 0.171333 -0.985213
vn 0.000000 0.171333 -0.985213
vn 0.000000 0.171333 -0.985213
vn 0.000000 0.717705 -0.696347
vn 0.000000 0.717705 -0.696348
vn 0.000000 0.717705 -0.696348
vn 0.000000 0.717705 -0.696347
vn 0.000000 0.989938 -0.141501
vn 0.000000 0.989938 -0.141501
vn 0.000000 0.989938 -0.141501
vn 0.000000 0.989938 -0.141501
vn 0.000000 0.884049 0.467394
vn 0.000000 0.884049 0.467394
vn 0.000000 0.884049 0.467394
vn 0.000000 0.884049 0.467394
vn 0.000000 0.440483 0.897761
vn 0.000000 0.440483 0.897761
vn 0.000000 0.440483 0.897761
vn 0.000000 0.440483 0.897761
vn 0.000000 -0.171332 0.985213
vn 0.000000 -0.171332 0.985213
vn 0.000000 -0.171333 0.985213
vn 0.000000 -0.171333 0.985213
vn 0.000000 -0.717705 0.696347
vn 0.000000 -0.717705 0.696348
vn 0.000000 -0.717705 0.696348
vn 0.000000 -0.717705 0.696348
vn 0.000000 -0.989938 0.141501
vn 0.000000 -0.989938 0.141501
vn 0.000000 -0.989938 0.141501
vn 0.000000 -0.989938 0.141501
vn 0.000000 -0.884049 -0.467394
vn 0.000000 -0.884049 -0.467394
vn 0.000000 -0.884049 -0.467394
vn 0.000000 -0.884049 -0.467394
vn -1.000000 -0.000000 0.000000
vn -1.000000 -0.000000 0.000000
vn -1.000000 0.000000 -0.000000
vn -1.000000 -0.000000 0.000000
vn -1.000000 -0.000000 0.000000
vn -1.000000 -0.000000 0.000000
vn -1.000000 0.000000 -0.000000
vn -1.000000 0.000000 -0.000000
vn -1.000000 -0.000000 0.000000
vn -1.000000 -0.000000 0.000000
vn -1.000000 -0.000000 0.000000
vn 1.000000 0.000000 -0.000000
vn 1.000000 -0.000000 0.000000
vn 1.000000 0.000000 -0.000000
vn 1.000000 -0.000000 0.000000
vn 1.000000 0.000000 -0.000000
vn 1.000000 0.000000 -0.000000
vn 1.000000 0.000000 -0.000000
vn 1.000000 0.000000 -0.000000
vn 1.000000 0.000000 -0.000000
vn 1.000000 0.000000 -0.000000
vn 1.000000 0.000000 -0.000000
s 1
g pCylinder1
usemtl phong3SG
f 1/11/1 2/12/2 11/22/3
f 11/22/3 2/12/2 12/23/4
s 2
f 2/12/5 3/13/6 12/23/7
f 12/23/7 3/13/6 13/24/8
s 3
f 3/13/9 4/14/10 13/24/11
f 13/24/11 4/14/10 14/25/12
s 4
f 4/14/13 5/15/14 14/25/15
f 14/25/15 5/15/14 15/26/16
s 5
f 5/15/17 6/16/18 15/26/19
f 15/26/19 6/16/18 16/27/20
s 6
f 6/16/21 7/17/22 16/27/23
f 16/27/23 7/17/22 17/28/24
s 7
f 7/17/25 8/18/26 17/28/27
f 17/28/27 8/18/26 18/29/28
s 8
f 8/18/29 9/19/30 18/29/31
f 18/29/31 9/19/30 19/30/32
s 9
f 9/19/33 10/20/34 19/30/35
f 19/30/35 10/20/34 20/31/36
s 10
f 10/20/37 1/21/38 20/31/39
f 20/31/39 1/21/38 11/32/40
s 11
f 2/2/41 1/1/42 21/43/43
f 3/3/44 2/2/41 21/43/43
f 4/4/45 3/3/44 21/43/43
f 5/5/46 4/4/45 21/43/43
f 6/6/47 5/5/46 21/43/43
f 7/7/48 6/6/47 21/43/43
f 8/8/49 7/7/48 21/43/43
f 9/9/50 8/8/49 21/43/43
f 10/10/51 9/9/50 21/43/43
f 1/1/42 10/10/51 21/43/43
s 12
f 11/41/52 12/40/53 22/44/54
f 12/40/53 13/39/55 22/44/54
f 13/39/55 14/38/56 22/44/54
f 14/38/56 15/37/57 22/44/54
f 15/37/57 16/36/58 22/44/54
f 16/36/58 17/35/59 22/44/54
f 17/35/59 18/34/60 22/44/54
f 18/34/60 19/33/61 22/44/54
f 19/33/61 20/42/62 22/44/54
f 20/42/62 11/41/52 22/44/54
