# This file uses centimeters as units for non-parametric coordinates.

mtllib model_quest_questring.mtl
g default
v 0.469846 0.171010 -0.045934
v 0.383022 0.321394 -0.045934
v 0.250000 0.433013 -0.045934
v 0.086824 0.492404 -0.045934
v -0.086824 0.492404 -0.045934
v -0.250000 0.433013 -0.045934
v -0.383022 0.321394 -0.045934
v -0.469846 0.171010 -0.045934
v -0.500000 0.000000 -0.045934
v -0.469846 -0.171010 -0.045934
v -0.383022 -0.321394 -0.045934
v -0.250000 -0.433013 -0.045934
v -0.086824 -0.492404 -0.045934
v 0.086824 -0.492404 -0.045934
v 0.250000 -0.433013 -0.045934
v 0.383022 -0.321394 -0.045934
v 0.469846 -0.171010 -0.045934
v 0.500000 -0.000000 -0.045934
v 0.469846 0.171010 0.045934
v 0.383022 0.321394 0.045934
v 0.250000 0.433013 0.045934
v 0.086824 0.492404 0.045934
v -0.086824 0.492404 0.045934
v -0.250000 0.433013 0.045934
v -0.383022 0.321394 0.045934
v -0.469846 0.171010 0.045934
v -0.500000 0.000000 0.045934
v -0.469846 -0.171010 0.045934
v -0.383022 -0.321394 0.045934
v -0.250000 -0.433013 0.045934
v -0.086824 -0.492404 0.045934
v 0.086824 -0.492404 0.045934
v 0.250000 -0.433013 0.045934
v 0.383022 -0.321394 0.045934
v 0.469846 -0.171010 0.045934
v 0.500000 0.000000 0.045934
v 0.535690 0.194975 -0.052371
v 0.436699 0.366433 -0.052371
v 0.436699 0.366433 0.052371
v 0.535690 0.194975 0.052371
v 0.285035 0.493695 -0.052371
v 0.285035 0.493695 0.052371
v 0.098992 0.561409 -0.052371
v 0.098992 0.561409 0.052371
v -0.098991 0.561409 -0.052371
v -0.098991 0.561409 0.052371
v -0.285035 0.493695 -0.052371
v -0.285035 0.493695 0.052371
v -0.436698 0.366434 -0.052371
v -0.436698 0.366434 0.052371
v -0.535690 0.194975 -0.052371
v -0.535690 0.194975 0.052371
v -0.570069 0.000000 -0.052371
v -0.570069 0.000000 0.052371
v -0.535690 -0.194975 -0.052371
v -0.535690 -0.194975 0.052371
v -0.436699 -0.366434 -0.052371
v -0.436699 -0.366434 0.052371
v -0.285035 -0.493695 -0.052371
v -0.285035 -0.493695 0.052371
v -0.098992 -0.561409 -0.052371
v -0.098992 -0.561409 0.052371
v 0.098991 -0.561409 -0.052371
v 0.098991 -0.561409 0.052371
v 0.285035 -0.493695 -0.052371
v 0.285035 -0.493695 0.052371
v 0.436698 -0.366434 -0.052371
v 0.436698 -0.366434 0.052371
v 0.535690 -0.194975 -0.052371
v 0.535690 -0.194975 0.052371
v 0.570069 -0.000000 -0.052371
v 0.570069 0.000000 0.052371
v 0.458263 0.384528 -0.002967
v 0.299110 0.518073 -0.002967
v 0.103880 0.589131 -0.002967
v -0.103880 0.589131 -0.002967
v -0.299110 0.518073 -0.002967
v -0.458263 0.384528 -0.002967
v -0.562142 0.204603 -0.002967
v -0.598220 0.000000 -0.002967
v -0.562142 -0.204603 -0.002967
v -0.458263 -0.384528 -0.002967
v -0.299110 -0.518073 -0.002967
v -0.103880 -0.589131 -0.002967
v 0.103880 -0.589131 -0.002967
v 0.299110 -0.518073 -0.002967
v 0.458263 -0.384528 -0.002967
v 0.562142 -0.204603 -0.002967
v 0.598219 -0.000000 -0.002967
v 0.562142 0.204603 -0.002967
vt 0.375000 0.312500
vt 0.388889 0.312500
vt 0.402778 0.312500
vt 0.416667 0.312500
vt 0.430556 0.312500
vt 0.444444 0.312500
vt 0.458333 0.312500
vt 0.472222 0.312500
vt 0.486111 0.312500
vt 0.500000 0.312500
vt 0.513889 0.312500
vt 0.527778 0.312500
vt 0.541667 0.312500
vt 0.555556 0.312500
vt 0.569445 0.312500
vt 0.583333 0.312500
vt 0.597222 0.312500
vt 0.611111 0.312500
vt 0.625000 0.312500
vt 0.375000 0.688440
vt 0.388889 0.688440
vt 0.402778 0.688440
vt 0.416667 0.688440
vt 0.430556 0.688440
vt 0.444444 0.688440
vt 0.458333 0.688440
vt 0.472222 0.688440
vt 0.486111 0.688440
vt 0.500000 0.688440
vt 0.513889 0.688440
vt 0.527778 0.688440
vt 0.541667 0.688440
vt 0.555556 0.688440
vt 0.569445 0.688440
vt 0.583333 0.688440
vt 0.597222 0.688440
vt 0.611111 0.688440
vt 0.625000 0.688440
vt 0.375000 0.312500
vt 0.388889 0.312500
vt 0.388889 0.688440
vt 0.375000 0.688440
vt 0.402778 0.312500
vt 0.402778 0.688440
vt 0.416667 0.312500
vt 0.416667 0.688440
vt 0.430556 0.312500
vt 0.430556 0.688440
vt 0.444444 0.312500
vt 0.444444 0.688440
vt 0.458333 0.312500
vt 0.458333 0.688440
vt 0.472222 0.312500
vt 0.472222 0.688440
vt 0.486111 0.312500
vt 0.486111 0.688440
vt 0.500000 0.312500
vt 0.500000 0.688440
vt 0.513889 0.312500
vt 0.513889 0.688440
vt 0.527778 0.312500
vt 0.527778 0.688440
vt 0.541667 0.312500
vt 0.541667 0.688440
vt 0.555556 0.312500
vt 0.555556 0.688440
vt 0.569445 0.312500
vt 0.569445 0.688440
vt 0.583333 0.312500
vt 0.583333 0.688440
vt 0.597222 0.312500
vt 0.597222 0.688440
vt 0.611111 0.312500
vt 0.611111 0.688440
vt 0.625000 0.312500
vt 0.625000 0.688440
vt 0.388889 0.489822
vt 0.402778 0.489822
vt 0.416667 0.489822
vt 0.430556 0.489822
vt 0.444444 0.489822
vt 0.458333 0.489822
vt 0.472222 0.489822
vt 0.486111 0.489822
vt 0.500000 0.489822
vt 0.513889 0.489822
vt 0.527778 0.489822
vt 0.541667 0.489822
vt 0.555556 0.489822
vt 0.569445 0.489822
vt 0.583333 0.489822
vt 0.597222 0.489822
vt 0.611111 0.489822
vt 0.625000 0.489822
vt 0.375000 0.489822
vn 0.939693 0.342021 0.000160
vn 0.766044 0.642788 0.000161
vn 0.837411 0.305239 0.453400
vn 0.682511 0.573242 0.453400
vn 0.500000 0.866026 0.000161
vn 0.445290 0.772105 0.453399
vn 0.173648 0.984808 0.000161
vn 0.154361 0.877840 0.453399
vn -0.173648 0.984808 0.000161
vn -0.155187 0.877694 0.453399
vn -0.500000 0.866025 0.000160
vn -0.446017 0.771685 0.453400
vn -0.766045 0.642788 0.000161
vn -0.683050 0.572600 0.453400
vn -0.939693 0.342020 0.000161
vn -0.837698 0.304451 0.453401
vn -1.000000 -0.000000 0.000161
vn -0.891307 -0.000420 0.453401
vn -0.939692 -0.342021 0.000161
vn -0.837411 -0.305239 0.453401
vn -0.766044 -0.642788 0.000161
vn -0.682511 -0.573243 0.453400
vn -0.500000 -0.866026 0.000161
vn -0.445290 -0.772105 0.453400
vn -0.173647 -0.984808 0.000162
vn -0.154360 -0.877840 0.453399
vn 0.173649 -0.984808 0.000161
vn 0.155188 -0.877694 0.453399
vn 0.500000 -0.866025 0.000160
vn 0.446017 -0.771685 0.453399
vn 0.766045 -0.642787 0.000161
vn 0.683051 -0.572600 0.453400
vn 0.939693 -0.342020 0.000162
vn 0.837698 -0.304450 0.453400
vn 1.000000 0.000000 0.000161
vn 0.891307 0.000420 0.453399
vn -0.080439 -0.046441 -0.995677
vn -0.080439 -0.046441 -0.995677
vn -0.080439 -0.046441 -0.995677
vn -0.080439 -0.046441 -0.995677
vn -0.080439 -0.046441 0.995677
vn -0.080439 -0.046441 0.995677
vn -0.080439 -0.046441 0.995677
vn -0.080439 -0.046441 0.995677
vn -0.059704 -0.071152 -0.995677
vn -0.059704 -0.071152 -0.995677
vn -0.059704 -0.071152 -0.995677
vn -0.059704 -0.071152 -0.995677
vn -0.059704 -0.071152 0.995677
vn -0.059704 -0.071152 0.995677
vn -0.059704 -0.071152 0.995677
vn -0.059704 -0.071152 0.995677
vn -0.031768 -0.087281 -0.995677
vn -0.031768 -0.087281 -0.995677
vn -0.031768 -0.087281 -0.995677
vn -0.031768 -0.087281 -0.995677
vn -0.031768 -0.087281 0.995677
vn -0.031768 -0.087281 0.995677
vn -0.031768 -0.087281 0.995677
vn -0.031768 -0.087281 0.995677
vn 0.000000 -0.092882 -0.995677
vn -0.000000 -0.092883 -0.995677
vn -0.000000 -0.092883 -0.995677
vn -0.000000 -0.092883 -0.995677
vn -0.000000 -0.092883 0.995677
vn -0.000000 -0.092883 0.995677
vn -0.000000 -0.092883 0.995677
vn 0.000000 -0.092882 0.995677
vn 0.031768 -0.087281 -0.995677
vn 0.031768 -0.087281 -0.995677
vn 0.031768 -0.087281 -0.995677
vn 0.031768 -0.087281 -0.995677
vn 0.031768 -0.087281 0.995677
vn 0.031768 -0.087281 0.995677
vn 0.031768 -0.087281 0.995677
vn 0.031768 -0.087281 0.995677
vn 0.059704 -0.071152 -0.995677
vn 0.059704 -0.071152 -0.995677
vn 0.059704 -0.071152 -0.995677
vn 0.059704 -0.071152 -0.995677
vn 0.059704 -0.071152 0.995677
vn 0.059704 -0.071152 0.995677
vn 0.059704 -0.071152 0.995677
vn 0.059704 -0.071152 0.995677
vn 0.080439 -0.046441 -0.995677
vn 0.080439 -0.046441 -0.995677
vn 0.080439 -0.046441 -0.995677
vn 0.080439 -0.046441 -0.995677
vn 0.080439 -0.046441 0.995677
vn 0.080439 -0.046441 0.995677
vn 0.080439 -0.046441 0.995677
vn 0.080439 -0.046441 0.995677
vn 0.091471 -0.016129 -0.995677
vn 0.091471 -0.016129 -0.995677
vn 0.091471 -0.016129 -0.995677
vn 0.091471 -0.016129 -0.995677
vn 0.091471 -0.016129 0.995677
vn 0.091471 -0.016129 0.995677
vn 0.091471 -0.016129 0.995677
vn 0.091471 -0.016129 0.995677
vn 0.091471 0.016129 -0.995677
vn 0.091471 0.016129 -0.995677
vn 0.091471 0.016129 -0.995677
vn 0.091471 0.016129 -0.995677
vn 0.091471 0.016129 0.995677
vn 0.091471 0.016129 0.995677
vn 0.091471 0.016129 0.995677
vn 0.091471 0.016129 0.995677
vn 0.080439 0.046441 -0.995677
vn 0.080439 0.046441 -0.995677
vn 0.080439 0.046441 -0.995677
vn 0.080439 0.046441 -0.995677
vn 0.080439 0.046441 0.995677
vn 0.080439 0.046441 0.995677
vn 0.080439 0.046441 0.995677
vn 0.080439 0.046441 0.995677
vn 0.059704 0.071152 -0.995677
vn 0.059704 0.071152 -0.995677
vn 0.059704 0.071152 -0.995677
vn 0.059704 0.071152 -0.995677
vn 0.059704 0.071152 0.995677
vn 0.059704 0.071152 0.995677
vn 0.059704 0.071152 0.995677
vn 0.059704 0.071152 0.995677
vn 0.031768 0.087281 -0.995677
vn 0.031768 0.087281 -0.995677
vn 0.031768 0.087281 -0.995677
vn 0.031768 0.087281 -0.995677
vn 0.031768 0.087281 0.995677
vn 0.031768 0.087281 0.995677
vn 0.031768 0.087281 0.995677
vn 0.031768 0.087281 0.995677
vn 0.000000 0.092882 -0.995677
vn 0.000000 0.092882 -0.995677
vn 0.000000 0.092882 -0.995677
vn 0.000000 0.092882 -0.995677
vn 0.000000 0.092882 0.995677
vn 0.000000 0.092882 0.995677
vn 0.000000 0.092882 0.995677
vn 0.000000 0.092882 0.995677
vn -0.031768 0.087281 -0.995677
vn -0.031768 0.087281 -0.995677
vn -0.031768 0.087281 -0.995677
vn -0.031768 0.087281 -0.995677
vn -0.031768 0.087281 0.995677
vn -0.031768 0.087281 0.995677
vn -0.031768 0.087281 0.995677
vn -0.031768 0.087281 0.995677
vn -0.059704 0.071152 -0.995677
vn -0.059704 0.071152 -0.995677
vn -0.059704 0.071152 -0.995677
vn -0.059704 0.071152 -0.995677
vn -0.059704 0.071152 0.995677
vn -0.059704 0.071152 0.995677
vn -0.059704 0.071152 0.995677
vn -0.059704 0.071152 0.995677
vn -0.080439 0.046441 -0.995677
vn -0.080439 0.046441 -0.995677
vn -0.080439 0.046441 -0.995677
vn -0.080439 0.046441 -0.995677
vn -0.080439 0.046441 0.995677
vn -0.080439 0.046441 0.995677
vn -0.080439 0.046441 0.995677
vn -0.080439 0.046441 0.995677
vn -0.091471 0.016129 -0.995677
vn -0.091471 0.016129 -0.995677
vn -0.091471 0.016129 -0.995677
vn -0.091471 0.016129 -0.995677
vn -0.091471 0.016129 0.995677
vn -0.091471 0.016129 0.995677
vn -0.091471 0.016129 0.995677
vn -0.091471 0.016129 0.995677
vn -0.091471 -0.016129 -0.995677
vn -0.091471 -0.016129 -0.995677
vn -0.091471 -0.016129 -0.995677
vn -0.091471 -0.016129 -0.995677
vn -0.091471 -0.016129 0.995677
vn -0.091471 -0.016129 0.995677
vn -0.091471 -0.016129 0.995677
vn -0.091471 -0.016129 0.995677
vn 0.665878 0.558141 -0.495060
vn 0.434826 0.752225 -0.495060
vn 0.151326 0.855580 -0.495059
vn -0.150426 0.855739 -0.495059
vn -0.434034 0.752683 -0.495059
vn -0.665290 0.558842 -0.495060
vn -0.816303 0.297597 -0.495061
vn -0.868858 0.000457 -0.495061
vn -0.816616 -0.296737 -0.495061
vn -0.665878 -0.558141 -0.495060
vn -0.434826 -0.752225 -0.495060
vn -0.151326 -0.855580 -0.495060
vn 0.150426 -0.855739 -0.495059
vn 0.434034 -0.752683 -0.495059
vn 0.665290 -0.558842 -0.495060
vn 0.816303 -0.297596 -0.495061
vn 0.868859 -0.000457 -0.495060
vn 0.816617 0.296738 -0.495059
s 1
g pCylinder1
usemtl phong1SG
f 90/95/1 73/77/2 40/42/3
f 40/42/3 73/77/2 39/41/4
f 73/77/2 74/78/5 39/41/4
f 39/41/4 74/78/5 42/44/6
f 74/78/5 75/79/7 42/44/6
f 42/44/6 75/79/7 44/46/8
f 75/79/7 76/80/9 44/46/8
f 44/46/8 76/80/9 46/48/10
f 76/80/9 77/81/11 46/48/10
f 46/48/10 77/81/11 48/50/12
f 77/81/11 78/82/13 48/50/12
f 48/50/12 78/82/13 50/52/14
f 78/82/13 79/83/15 50/52/14
f 50/52/14 79/83/15 52/54/16
f 79/83/15 80/84/17 52/54/16
f 52/54/16 80/84/17 54/56/18
f 80/84/17 81/85/19 54/56/18
f 54/56/18 81/85/19 56/58/20
f 81/85/19 82/86/21 56/58/20
f 56/58/20 82/86/21 58/60/22
f 82/86/21 83/87/23 58/60/22
f 58/60/22 83/87/23 60/62/24
f 83/87/23 84/88/25 60/62/24
f 60/62/24 84/88/25 62/64/26
f 84/88/25 85/89/27 62/64/26
f 62/64/26 85/89/27 64/66/28
f 85/89/27 86/90/29 64/66/28
f 64/66/28 86/90/29 66/68/30
f 86/90/29 87/91/31 66/68/30
f 66/68/30 87/91/31 68/70/32
f 87/91/31 88/92/33 68/70/32
f 68/70/32 88/92/33 70/72/34
f 88/92/33 89/93/35 70/72/34
f 70/72/34 89/93/35 72/74/36
f 89/93/35 90/94/1 72/74/36
f 72/74/36 90/94/1 40/76/3
s 2
f 1/1/37 2/2/38 37/39/39
f 37/39/39 2/2/38 38/40/40
s 3
f 20/21/41 19/20/42 39/41/43
f 39/41/43 19/20/42 40/42/44
s 4
f 2/2/45 3/3/46 38/40/47
f 38/40/47 3/3/46 41/43/48
s 5
f 21/22/49 20/21/50 42/44/51
f 42/44/51 20/21/50 39/41/52
s 6
f 3/3/53 4/4/54 41/43/55
f 41/43/55 4/4/54 43/45/56
s 7
f 22/23/57 21/22/58 44/46/59
f 44/46/59 21/22/58 42/44/60
s 8
f 4/4/61 5/5/62 43/45/63
f 43/45/63 5/5/62 45/47/64
s 9
f 23/24/65 22/23/66 46/48/67
f 46/48/67 22/23/66 44/46/68
s 10
f 5/5/69 6/6/70 45/47/71
f 45/47/71 6/6/70 47/49/72
s 11
f 24/25/73 23/24/74 48/50/75
f 48/50/75 23/24/74 46/48/76
s 12
f 6/6/77 7/7/78 47/49/79
f 47/49/79 7/7/78 49/51/80
s 13
f 25/26/81 24/25/82 50/52/83
f 50/52/83 24/25/82 48/50/84
s 14
f 7/7/85 8/8/86 49/51/87
f 49/51/87 8/8/86 51/53/88
s 15
f 26/27/89 25/26/90 52/54/91
f 52/54/91 25/26/90 50/52/92
s 16
f 8/8/93 9/9/94 51/53/95
f 51/53/95 9/9/94 53/55/96
s 17
f 27/28/97 26/27/98 54/56/99
f 54/56/99 26/27/98 52/54/100
s 18
f 9/9/101 10/10/102 53/55/103
f 53/55/103 10/10/102 55/57/104
s 19
f 28/29/105 27/28/106 56/58/107
f 56/58/107 27/28/106 54/56/108
s 20
f 10/10/109 11/11/110 55/57/111
f 55/57/111 11/11/110 57/59/112
s 21
f 29/30/113 28/29/114 58/60/115
f 58/60/115 28/29/114 56/58/116
s 22
f 11/11/117 12/12/118 57/59/119
f 57/59/119 12/12/118 59/61/120
s 23
f 30/31/121 29/30/122 60/62/123
f 60/62/123 29/30/122 58/60/124
s 24
f 12/12/125 13/13/126 59/61/127
f 59/61/127 13/13/126 61/63/128
s 25
f 31/32/129 30/31/130 62/64/131
f 62/64/131 30/31/130 60/62/132
s 26
f 13/13/133 14/14/134 61/63/135
f 61/63/135 14/14/134 63/65/136
s 27
f 32/33/137 31/32/138 64/66/139
f 64/66/139 31/32/138 62/64/140
s 28
f 14/14/141 15/15/142 63/65/143
f 63/65/143 15/15/142 65/67/144
s 29
f 33/34/145 32/33/146 66/68/147
f 66/68/147 32/33/146 64/66/148
s 30
f 15/15/149 16/16/150 65/67/151
f 65/67/151 16/16/150 67/69/152
s 31
f 34/35/153 33/34/154 68/70/155
f 68/70/155 33/34/154 66/68/156
s 32
f 16/16/157 17/17/158 67/69/159
f 67/69/159 17/17/158 69/71/160
s 33
f 35/36/161 34/35/162 70/72/163
f 70/72/163 34/35/162 68/70/164
s 34
f 17/17/165 18/18/166 69/71/167
f 69/71/167 18/18/166 71/73/168
s 35
f 36/37/169 35/36/170 72/74/171
f 72/74/171 35/36/170 70/72/172
s 36
f 18/18/173 1/19/174 71/73/175
f 71/73/175 1/19/174 37/75/176
s 37
f 19/38/177 36/37/178 40/76/179
f 40/76/179 36/37/178 72/74/180
s 1
f 38/40/181 41/43/182 73/77/2
f 73/77/2 41/43/182 74/78/5
f 41/43/182 43/45/183 74/78/5
f 74/78/5 43/45/183 75/79/7
f 43/45/183 45/47/184 75/79/7
f 75/79/7 45/47/184 76/80/9
f 45/47/184 47/49/185 76/80/9
f 76/80/9 47/49/185 77/81/11
f 47/49/185 49/51/186 77/81/11
f 77/81/11 49/51/186 78/82/13
f 49/51/186 51/53/187 78/82/13
f 78/82/13 51/53/187 79/83/15
f 51/53/187 53/55/188 79/83/15
f 79/83/15 53/55/188 80/84/17
f 53/55/188 55/57/189 80/84/17
f 80/84/17 55/57/189 81/85/19
f 55/57/189 57/59/190 81/85/19
f 81/85/19 57/59/190 82/86/21
f 57/59/190 59/61/191 82/86/21
f 82/86/21 59/61/191 83/87/23
f 59/61/191 61/63/192 83/87/23
f 83/87/23 61/63/192 84/88/25
f 61/63/192 63/65/193 84/88/25
f 84/88/25 63/65/193 85/89/27
f 63/65/193 65/67/194 85/89/27
f 85/89/27 65/67/194 86/90/29
f 65/67/194 67/69/195 86/90/29
f 86/90/29 67/69/195 87/91/31
f 67/69/195 69/71/196 87/91/31
f 87/91/31 69/71/196 88/92/33
f 69/71/196 71/73/197 88/92/33
f 88/92/33 71/73/197 89/93/35
f 71/73/197 37/75/198 89/93/35
f 89/93/35 37/75/198 90/94/1
f 37/39/198 38/40/181 90/95/1
f 90/95/1 38/40/181 73/77/2
