# This file uses centimeters as units for non-parametric coordinates.

mtllib model_slot.mtl
g default
v -0.851221 -0.762050 0.428736
v -0.608015 -0.762050 0.428736
v -0.364809 -0.762050 0.428736
v -0.121603 -0.762050 0.428736
v 0.121603 -0.762050 0.428736
v 0.364809 -0.762050 0.428736
v 0.608015 -0.762050 0.428736
v 0.851221 -0.762050 0.428736
v -0.851221 0.940391 0.428736
v -0.608015 0.940391 0.428736
v -0.364809 0.940391 0.428736
v -0.121603 0.940391 0.428736
v 0.121603 0.940391 0.428736
v 0.364809 0.940391 0.428736
v 0.608015 0.940391 0.428736
v 0.851221 0.940391 0.428736
v -0.851221 0.940391 -1.273705
v -0.608015 0.940391 -1.273705
v -0.364809 0.940391 -1.273705
v -0.121603 0.940391 -1.273705
v 0.121603 0.940391 -1.273705
v 0.364809 0.940391 -1.273705
v 0.608015 0.940391 -1.273705
v 0.851221 0.940391 -1.273705
v -0.851221 -0.762050 -1.273705
v -0.608015 -0.762050 -1.273705
v -0.364809 -0.762050 -1.273705
v -0.121603 -0.762050 -1.273705
v 0.121603 -0.762050 -1.273705
v 0.364809 -0.762050 -1.273705
v 0.608015 -0.762050 -1.273705
v 0.851221 -0.762050 -1.273705
v -0.851221 -0.370294 0.428736
v -0.694069 -0.425370 0.418166
v -0.283521 -0.425370 0.418166
v -0.201139 -0.425370 0.418166
v 0.201139 -0.425370 0.418166
v 0.283521 -0.425370 0.418166
v 0.694069 -0.425370 0.418166
v 0.851221 -0.370294 0.428736
v 0.851221 -0.370294 -1.273705
v 0.608015 -0.371425 -1.260227
v 0.364809 -0.371425 -1.260227
v 0.121603 -0.371425 -1.260227
v -0.121603 -0.371425 -1.260227
v -0.364809 -0.371425 -1.260227
v -0.608015 -0.371425 -1.260227
v -0.851221 -0.370294 -1.273705
v -0.851221 0.420389 -1.273705
v -0.608015 0.409106 -1.278731
v -0.364809 0.409106 -1.278731
v -0.121603 0.409106 -1.278731
v 0.121603 0.409106 -1.278731
v 0.364809 0.409106 -1.278731
v 0.608015 0.409106 -1.278731
v 0.851221 0.420389 -1.273705
v 0.851221 0.420389 0.428736
v 0.694069 0.463050 0.439295
v 0.283521 0.463050 0.439295
v 0.201139 0.463050 0.439295
v -0.201139 0.463050 0.439295
v -0.283521 0.463050 0.439295
v -0.694069 0.463050 0.439295
v -0.851221 0.420389 0.428736
v -0.608015 -0.347175 -0.552657
v -0.364809 -0.347175 -0.552657
v -0.364809 0.431095 -0.534148
v -0.608015 0.431095 -0.534148
v -0.121603 -0.347175 -0.552657
v 0.121603 -0.347175 -0.552657
v 0.121603 0.431095 -0.534148
v -0.121603 0.431095 -0.534148
v 0.364809 -0.347175 -0.552657
v 0.608015 -0.347175 -0.552657
v 0.608015 0.431095 -0.534148
v 0.364809 0.431095 -0.534148
vt 0.375000 0.000000
vt 0.410714 0.000000
vt 0.446429 0.000000
vt 0.482143 0.000000
vt 0.517857 0.000000
vt 0.553571 0.000000
vt 0.589286 0.000000
vt 0.625000 0.000000
vt 0.375000 0.250000
vt 0.410714 0.250000
vt 0.446429 0.250000
vt 0.482143 0.250000
vt 0.517857 0.250000
vt 0.553571 0.250000
vt 0.589286 0.250000
vt 0.625000 0.250000
vt 0.375000 0.500000
vt 0.410714 0.500000
vt 0.446429 0.500000
vt 0.482143 0.500000
vt 0.517857 0.500000
vt 0.553571 0.500000
vt 0.589286 0.500000
vt 0.625000 0.500000
vt 0.375000 0.750000
vt 0.410714 0.750000
vt 0.446429 0.750000
vt 0.482143 0.750000
vt 0.517857 0.750000
vt 0.553571 0.750000
vt 0.589286 0.750000
vt 0.625000 0.750000
vt 0.375000 1.000000
vt 0.410714 1.000000
vt 0.446429 1.000000
vt 0.482143 1.000000
vt 0.517857 1.000000
vt 0.553571 1.000000
vt 0.589286 1.000000
vt 0.625000 1.000000
vt 0.875000 0.000000
vt 0.875000 0.250000
vt 0.125000 0.000000
vt 0.125000 0.250000
vt 0.375000 0.057528
vt 0.410714 0.057528
vt 0.446429 0.057528
vt 0.482143 0.057528
vt 0.517857 0.057528
vt 0.553571 0.057528
vt 0.589286 0.057528
vt 0.625000 0.057528
vt 0.625000 0.692472
vt 0.875000 0.057528
vt 0.589286 0.692472
vt 0.553571 0.692472
vt 0.517857 0.692472
vt 0.482143 0.692472
vt 0.446429 0.692472
vt 0.410714 0.692472
vt 0.125000 0.057528
vt 0.375000 0.692472
vt 0.125000 0.156814
vt 0.375000 0.593186
vt 0.410714 0.593186
vt 0.446429 0.593186
vt 0.482143 0.593186
vt 0.517857 0.593186
vt 0.553571 0.593186
vt 0.589286 0.593186
vt 0.625000 0.593186
vt 0.875000 0.156814
vt 0.625000 0.156814
vt 0.589286 0.156814
vt 0.553571 0.156814
vt 0.517857 0.156814
vt 0.482143 0.156814
vt 0.446429 0.156814
vt 0.410714 0.156814
vt 0.375000 0.156814
vt 0.410714 0.057528
vt 0.446429 0.057528
vt 0.446429 0.156814
vt 0.410714 0.156814
vt 0.482143 0.057528
vt 0.517857 0.057528
vt 0.517857 0.156814
vt 0.482143 0.156814
vt 0.553571 0.057528
vt 0.589286 0.057528
vt 0.589286 0.156814
vt 0.553571 0.156814
vn 0.032350 0.006783 0.999454
vn -0.026033 0.010794 0.999603
vn 0.052093 -0.016810 0.998501
vn -0.067036 0.000000 0.997751
vn 0.000000 -0.023775 0.999717
vn 0.000000 -0.023775 0.999717
vn 0.000000 -0.023775 0.999717
vn 0.000000 -0.023775 0.999717
vn 0.000000 0.011548 0.999933
vn 0.000000 0.013517 0.999909
vn -0.000000 0.009671 0.999953
vn -0.000000 0.011375 0.999935
vn 0.000000 -0.023775 0.999717
vn 0.000000 -0.023775 0.999717
vn 0.000000 -0.023775 0.999717
vn 0.000000 -0.023775 0.999717
vn 0.000000 0.014846 0.999890
vn -0.000000 0.011548 0.999933
vn -0.000000 0.010611 0.999944
vn 0.000000 0.009671 0.999953
vn 0.000000 -0.023775 0.999717
vn 0.000000 -0.023775 0.999717
vn 0.000000 -0.023775 0.999717
vn 0.000000 -0.023775 0.999717
vn -0.032350 0.006783 0.999454
vn -0.052093 -0.016810 0.998501
vn 0.026033 0.010794 0.999603
vn 0.067036 0.000000 0.997751
vn 0.000000 1.000000 0.000000
vn 0.000000 1.000000 0.000000
vn 0.000000 1.000000 0.000000
vn 0.000000 1.000000 0.000000
vn 0.000000 1.000000 0.000000
vn 0.000000 1.000000 0.000000
vn 0.000000 1.000000 0.000000
vn 0.000000 1.000000 0.000000
vn 0.000000 1.000000 0.000000
vn 0.000000 1.000000 0.000000
vn 0.000000 1.000000 0.000000
vn 0.000000 1.000000 0.000000
vn 0.000000 1.000000 0.000000
vn 0.000000 1.000000 0.000000
vn 0.000000 1.000000 0.000000
vn 0.000000 1.000000 0.000000
vn -0.018246 0.002878 -0.999829
vn -0.005977 -0.004610 -0.999972
vn 0.045455 -0.012747 -0.998885
vn 0.024372 -0.007979 -0.999671
vn 0.000000 -0.010274 -0.999947
vn 0.000000 -0.004291 -0.999991
vn 0.000000 -0.010274 -0.999947
vn 0.000000 -0.004291 -0.999991
vn 0.000000 -0.010274 -0.999947
vn 0.000000 -0.004291 -0.999991
vn 0.000000 -0.010274 -0.999947
vn 0.000000 -0.004291 -0.999991
vn 0.005977 -0.004610 -0.999972
vn -0.024372 -0.007979 -0.999671
vn 0.018246 0.002878 -0.999829
vn -0.045455 -0.012747 -0.998885
vn 0.000000 -1.000000 0.000000
vn 0.000000 -1.000000 0.000000
vn 0.000000 -1.000000 0.000000
vn 0.000000 -1.000000 0.000000
vn 0.000000 -1.000000 0.000000
vn 0.000000 -1.000000 0.000000
vn 0.000000 -1.000000 0.000000
vn 0.000000 -1.000000 0.000000
vn 0.000000 -1.000000 0.000000
vn 0.000000 -1.000000 0.000000
vn 0.000000 -1.000000 0.000000
vn 0.000000 -1.000000 0.000000
vn 0.000000 -1.000000 0.000000
vn 0.000000 -1.000000 0.000000
vn 0.000000 -1.000000 0.000000
vn 0.000000 -1.000000 0.000000
vn 1.000000 0.000000 0.000000
vn 1.000000 0.000000 0.000000
vn 1.000000 0.000000 0.000000
vn 1.000000 0.000000 0.000000
vn -1.000000 0.000000 0.000000
vn -1.000000 0.000000 0.000000
vn -1.000000 0.000000 0.000000
vn -1.000000 0.000000 0.000000
vn 0.000000 0.031380 0.999508
vn 0.015116 0.024326 0.999590
vn 0.000000 0.031380 0.999508
vn 0.000000 0.031380 0.999508
vn 0.000000 0.031380 0.999508
vn 0.000000 0.031380 0.999508
vn 0.000000 0.031380 0.999508
vn -0.015117 0.024326 0.999590
vn 1.000000 0.000000 0.000000
vn 1.000000 0.000000 0.000000
vn -0.019687 0.022231 -0.999559
vn 0.000000 0.034483 -0.999405
vn 0.000000 0.034483 -0.999405
vn 0.000000 0.034483 -0.999405
vn 0.000000 0.034483 -0.999405
vn 0.000000 0.034483 -0.999405
vn 0.000000 0.034483 -0.999405
vn 0.019687 0.022231 -0.999559
vn -1.000000 0.000000 0.000000
vn -1.000000 0.000000 0.000000
vn 0.000000 0.000000 -1.000000
vn -0.002839 0.006094 -0.999977
vn 0.000000 0.009460 -0.999955
vn 0.000000 0.009460 -0.999955
vn 0.000000 0.009460 -0.999955
vn 0.000000 0.009460 -0.999955
vn 0.002839 0.006094 -0.999977
vn 0.000000 0.000000 -1.000000
vn 1.000000 0.000000 0.000000
vn 1.000000 0.000000 0.000000
vn 0.010202 0.018756 0.999772
vn 0.000000 0.022114 0.999755
vn 0.000000 0.022114 0.999756
vn 0.000000 0.022114 0.999755
vn 0.000000 0.022114 0.999755
vn -0.000000 0.022114 0.999756
vn 0.000000 0.022114 0.999755
vn -0.010202 0.018756 0.999772
vn -1.000000 0.000000 0.000000
vn -1.000000 0.000000 0.000000
vn 0.000000 0.996772 0.080285
vn 0.000000 0.996772 0.080285
vn 0.000000 0.996772 0.080285
vn 0.000000 0.996772 0.080285
vn -0.996524 -0.001981 0.083280
vn -0.996524 -0.001981 0.083280
vn -0.996524 -0.001981 0.083280
vn -0.996524 -0.001981 0.083280
vn 0.000000 -0.999462 0.032810
vn 0.000000 -0.999462 0.032810
vn 0.000000 -0.999462 0.032810
vn 0.000000 -0.999462 0.032810
vn 0.996107 -0.002096 0.088126
vn 0.996107 -0.002096 0.088126
vn 0.996107 -0.002096 0.088126
vn 0.996107 -0.002096 0.088126
vn 0.000000 0.996772 0.080285
vn 0.000000 0.996772 0.080285
vn 0.000000 0.996772 0.080285
vn 0.000000 0.996772 0.080285
vn -0.996672 -0.001938 0.081498
vn -0.996672 -0.001938 0.081498
vn -0.996672 -0.001938 0.081498
vn -0.996672 -0.001938 0.081498
vn 0.000000 -0.999462 0.032810
vn 0.000000 -0.999462 0.032810
vn 0.000000 -0.999462 0.032810
vn 0.000000 -0.999462 0.032810
vn 0.996672 -0.001938 0.081498
vn 0.996672 -0.001938 0.081498
vn 0.996672 -0.001938 0.081498
vn 0.996672 -0.001938 0.081498
vn 0.000000 0.996772 0.080285
vn 0.000000 0.996772 0.080285
vn 0.000000 0.996772 0.080285
vn 0.000000 0.996772 0.080285
vn -0.996107 -0.002096 0.088126
vn -0.996107 -0.002096 0.088126
vn -0.996107 -0.002096 0.088126
vn -0.996107 -0.002096 0.088126
vn 0.000000 -0.999462 0.032810
vn 0.000000 -0.999462 0.032810
vn 0.000000 -0.999462 0.032810
vn 0.000000 -0.999462 0.032810
vn 0.996524 -0.001981 0.083280
vn 0.996524 -0.001981 0.083280
vn 0.996524 -0.001981 0.083280
vn 0.996524 -0.001981 0.083280
s 1
g pCube1
usemtl blinn4SG
f 34/46/1 63/79/2 33/45/3
f 33/45/3 63/79/2 64/80/4
s 2
f 65/81/5 66/82/6 68/84/7
f 68/84/7 66/82/6 67/83/8
s 1
f 35/47/9 36/48/10 62/78/11
f 62/78/11 36/48/10 61/77/12
s 4
f 69/85/13 70/86/14 72/88/15
f 72/88/15 70/86/14 71/87/16
s 1
f 37/49/17 38/50/18 60/76/19
f 60/76/19 38/50/18 59/75/20
s 6
f 73/89/21 74/90/22 76/92/23
f 76/92/23 74/90/22 75/91/24
s 1
f 39/51/25 40/52/26 58/74/27
f 58/74/27 40/52/26 57/73/28
s 8
f 9/9/29 10/10/30 17/17/31
f 17/17/31 10/10/30 18/18/32
f 10/10/30 11/11/33 18/18/32
f 18/18/32 11/11/33 19/19/34
f 11/11/33 12/12/35 19/19/34
f 19/19/34 12/12/35 20/20/36
f 12/12/35 13/13/37 20/20/36
f 20/20/36 13/13/37 21/21/38
f 13/13/37 14/14/39 21/21/38
f 21/21/38 14/14/39 22/22/40
f 14/14/39 15/15/41 22/22/40
f 22/22/40 15/15/41 23/23/42
f 15/15/41 16/16/43 23/23/42
f 23/23/42 16/16/43 24/24/44
s 9
f 49/64/45 50/65/46 48/62/47
f 48/62/47 50/65/46 47/60/48
f 50/65/46 51/66/49 47/60/48
f 47/60/48 51/66/49 46/59/50
f 51/66/49 52/67/51 46/59/50
f 46/59/50 52/67/51 45/58/52
f 52/67/51 53/68/53 45/58/52
f 45/58/52 53/68/53 44/57/54
f 53/68/53 54/69/55 44/57/54
f 44/57/54 54/69/55 43/56/56
f 54/69/55 55/70/57 43/56/56
f 43/56/56 55/70/57 42/55/58
f 56/71/59 41/53/60 55/70/57
f 55/70/57 41/53/60 42/55/58
s 10
f 25/25/61 26/26/62 1/33/63
f 1/33/63 26/26/62 2/34/64
f 26/26/62 27/27/65 2/34/64
f 2/34/64 27/27/65 3/35/66
f 27/27/65 28/28/67 3/35/66
f 3/35/66 28/28/67 4/36/68
f 28/28/67 29/29/69 4/36/68
f 4/36/68 29/29/69 5/37/70
f 29/29/69 30/30/71 5/37/70
f 5/37/70 30/30/71 6/38/72
f 30/30/71 31/31/73 6/38/72
f 6/38/72 31/31/73 7/39/74
f 31/31/73 32/32/75 7/39/74
f 7/39/74 32/32/75 8/40/76
s 11
f 40/52/77 41/54/78 57/73/79
f 57/73/79 41/54/78 56/72/80
s 12
f 48/61/81 33/45/82 49/63/83
f 49/63/83 33/45/82 64/80/84
s 1
f 2/2/85 34/46/1 1/1/86
f 1/1/86 34/46/1 33/45/3
f 3/3/87 35/47/9 2/2/85
f 2/2/85 35/47/9 34/46/1
f 4/4/88 36/48/10 3/3/87
f 3/3/87 36/48/10 35/47/9
f 4/4/88 5/5/89 36/48/10
f 36/48/10 5/5/89 37/49/17
f 5/5/89 6/6/90 37/49/17
f 37/49/17 6/6/90 38/50/18
f 6/6/90 7/7/91 38/50/18
f 38/50/18 7/7/91 39/51/25
f 7/7/91 8/8/92 39/51/25
f 39/51/25 8/8/92 40/52/26
s 11
f 8/8/93 32/41/94 40/52/77
f 40/52/77 32/41/94 41/54/78
s 9
f 41/53/60 32/32/95 42/55/58
f 42/55/58 32/32/95 31/31/96
f 43/56/56 42/55/58 30/30/97
f 30/30/97 42/55/58 31/31/96
f 44/57/54 43/56/56 29/29/98
f 29/29/98 43/56/56 30/30/97
f 45/58/52 44/57/54 28/28/99
f 28/28/99 44/57/54 29/29/98
f 46/59/50 45/58/52 27/27/100
f 27/27/100 45/58/52 28/28/99
f 47/60/48 46/59/50 26/26/101
f 26/26/101 46/59/50 27/27/100
f 48/62/47 47/60/48 25/25/102
f 25/25/102 47/60/48 26/26/101
s 12
f 25/43/103 1/1/104 48/61/81
f 48/61/81 1/1/104 33/45/82
s 9
f 17/17/105 18/18/106 49/64/45
f 49/64/45 18/18/106 50/65/46
f 18/18/106 19/19/107 50/65/46
f 50/65/46 19/19/107 51/66/49
f 19/19/107 20/20/108 51/66/49
f 51/66/49 20/20/108 52/67/51
f 20/20/108 21/21/109 52/67/51
f 52/67/51 21/21/109 53/68/53
f 21/21/109 22/22/110 53/68/53
f 53/68/53 22/22/110 54/69/55
f 22/22/110 23/23/111 54/69/55
f 54/69/55 23/23/111 55/70/57
f 24/24/112 56/71/59 23/23/111
f 23/23/111 56/71/59 55/70/57
s 11
f 57/73/79 56/72/80 16/16/113
f 16/16/113 56/72/80 24/42/114
s 1
f 57/73/28 16/16/115 58/74/27
f 58/74/27 16/16/115 15/15/116
f 58/74/27 15/15/116 59/75/20
f 59/75/20 15/15/116 14/14/117
f 59/75/20 14/14/117 60/76/19
f 60/76/19 14/14/117 13/13/118
f 61/77/12 60/76/19 12/12/119
f 12/12/119 60/76/19 13/13/118
f 62/78/11 61/77/12 11/11/120
f 11/11/120 61/77/12 12/12/119
f 63/79/2 62/78/11 10/10/121
f 10/10/121 62/78/11 11/11/120
f 64/80/4 63/79/2 9/9/122
f 9/9/122 63/79/2 10/10/121
s 12
f 49/63/83 64/80/84 17/44/123
f 17/44/123 64/80/84 9/9/124
s 15
f 34/46/125 35/47/126 65/81/127
f 65/81/127 35/47/126 66/82/128
s 16
f 35/47/129 62/78/130 66/82/131
f 66/82/131 62/78/130 67/83/132
s 17
f 63/79/133 68/84/134 62/78/135
f 62/78/135 68/84/134 67/83/136
s 18
f 63/79/137 34/46/138 68/84/139
f 68/84/139 34/46/138 65/81/140
s 19
f 36/48/141 37/49/142 69/85/143
f 69/85/143 37/49/142 70/86/144
s 20
f 37/49/145 60/76/146 70/86/147
f 70/86/147 60/76/146 71/87/148
s 21
f 60/76/149 61/77/150 71/87/151
f 71/87/151 61/77/150 72/88/152
s 22
f 61/77/153 36/48/154 72/88/155
f 72/88/155 36/48/154 69/85/156
s 23
f 39/51/157 74/90/158 38/50/159
f 38/50/159 74/90/158 73/89/160
s 24
f 39/51/161 58/74/162 74/90/163
f 74/90/163 58/74/162 75/91/164
s 25
f 58/74/165 59/75/166 75/91/167
f 75/91/167 59/75/166 76/92/168
s 26
f 59/75/169 38/50/170 76/92/171
f 76/92/171 38/50/170 73/89/172
