# This file uses centimeters as units for non-parametric coordinates.

mtllib model_slot_roll.mtl
g default
v 0.188890 0.365430 -0.558138
v 0.188890 -0.078829 -0.662453
v 0.188890 -0.486203 -0.456798
v 0.188890 -0.666077 -0.037403
v 0.188890 -0.534287 0.399494
v 0.188890 -0.152498 0.649463
v 0.188890 0.300647 0.595541
v 0.188890 0.613115 0.262959
v 0.188890 0.638700 -0.192665
v -0.188890 0.365430 -0.558138
v -0.188890 -0.078829 -0.662453
v -0.188890 -0.486203 -0.456798
v -0.188890 -0.666077 -0.037403
v -0.188890 -0.534287 0.399494
v -0.188890 -0.152498 0.649463
v -0.188890 0.300647 0.595541
v -0.188890 0.613115 0.262959
v -0.188890 0.638700 -0.192665
v 0.188890 -0.000000 0.000000
v -0.188890 0.000000 0.000000
vt 0.619694 0.055814
vt 0.527133 0.002374
vt 0.421875 0.020934
vt 0.353173 0.102809
vt 0.353173 0.209691
vt 0.421875 0.291566
vt 0.527133 0.310126
vt 0.619694 0.256686
vt 0.656250 0.156250
vt 0.375000 0.312500
vt 0.402778 0.312500
vt 0.430556 0.312500
vt 0.458333 0.312500
vt 0.486111 0.312500
vt 0.513889 0.312500
vt 0.541667 0.312500
vt 0.569445 0.312500
vt 0.597222 0.312500
vt 0.625000 0.312500
vt 0.375000 0.688440
vt 0.402778 0.688440
vt 0.430556 0.688440
vt 0.458333 0.688440
vt 0.486111 0.688440
vt 0.513889 0.688440
vt 0.541667 0.688440
vt 0.569445 0.688440
vt 0.597222 0.688440
vt 0.625000 0.688440
vt 0.619694 0.743314
vt 0.527133 0.689874
vt 0.421875 0.708434
vt 0.353173 0.790309
vt 0.353173 0.897191
vt 0.421875 0.979066
vt 0.527133 0.997626
vt 0.619694 0.944186
vt 0.656250 0.843750
vt 0.500000 0.150000
vt 0.500000 0.837500
vn 0.000000 0.228589 -0.973523
vn 0.000000 0.228589 -0.973523
vn 0.000000 0.228589 -0.973523
vn 0.000000 0.228589 -0.973523
vn -0.000000 -0.450659 -0.892696
vn -0.000000 -0.450659 -0.892696
vn -0.000000 -0.450659 -0.892696
vn -0.000000 -0.450659 -0.892696
vn -0.000000 -0.919039 -0.394166
vn -0.000000 -0.919039 -0.394166
vn -0.000000 -0.919039 -0.394166
vn -0.000000 -0.919039 -0.394166
vn -0.000000 -0.957390 0.288798
vn -0.000000 -0.957390 0.288798
vn -0.000000 -0.957390 0.288798
vn -0.000000 -0.957390 0.288798
vn -0.000000 -0.547768 0.836631
vn -0.000000 -0.547767 0.836631
vn -0.000000 -0.547767 0.836631
vn -0.000000 -0.547768 0.836631
vn 0.000000 0.118161 0.992994
vn 0.000000 0.118161 0.992994
vn 0.000000 0.118161 0.992994
vn 0.000000 0.118161 0.992994
vn 0.000000 0.728801 0.684725
vn 0.000000 0.728801 0.684725
vn 0.000000 0.728801 0.684725
vn 0.000000 0.728801 0.684725
vn 0.000000 0.998427 0.056065
vn 0.000000 0.998427 0.056065
vn 0.000000 0.998427 0.056065
vn 0.000000 0.998427 0.056065
vn 0.000000 0.800878 -0.598828
vn 0.000000 0.800878 -0.598828
vn 0.000000 0.800878 -0.598828
vn 0.000000 0.800878 -0.598828
vn 1.000000 0.000000 0.000000
vn 1.000000 -0.000000 0.000000
vn 1.000000 0.000000 0.000000
vn 1.000000 0.000000 0.000000
vn 1.000000 -0.000000 0.000000
vn 1.000000 -0.000000 0.000000
vn 1.000000 -0.000000 0.000000
vn 1.000000 -0.000000 0.000000
vn 1.000000 -0.000000 0.000000
vn 1.000000 -0.000000 0.000000
vn -1.000000 0.000000 -0.000000
vn -1.000000 0.000000 0.000000
vn -1.000000 0.000000 0.000000
vn -1.000000 0.000000 0.000000
vn -1.000000 0.000000 -0.000000
vn -1.000000 0.000000 -0.000000
vn -1.000000 0.000000 -0.000000
vn -1.000000 0.000000 -0.000000
vn -1.000000 0.000000 -0.000000
vn -1.000000 0.000000 -0.000000
s 1
g pCylinder1
usemtl blinn3SG
f 1/10/1 2/11/2 10/20/3
f 10/20/3 2/11/2 11/21/4
s 2
usemtl blinn2SG
f 2/11/5 3/12/6 11/21/7
f 11/21/7 3/12/6 12/22/8
s 3
usemtl blinn1SG
f 3/12/9 4/13/10 12/22/11
f 12/22/11 4/13/10 13/23/12
s 4
usemtl blinn3SG
f 4/13/13 5/14/14 13/23/15
f 13/23/15 5/14/14 14/24/16
s 5
usemtl blinn2SG
f 5/14/17 6/15/18 14/24/19
f 14/24/19 6/15/18 15/25/20
s 6
usemtl blinn1SG
f 6/15/21 7/16/22 15/25/23
f 15/25/23 7/16/22 16/26/24
s 7
usemtl blinn3SG
f 7/16/25 8/17/26 16/26/27
f 16/26/27 8/17/26 17/27/28
s 8
usemtl blinn2SG
f 8/17/29 9/18/30 17/27/31
f 17/27/31 9/18/30 18/28/32
s 9
usemtl blinn1SG
f 9/18/33 1/19/34 18/28/35
f 18/28/35 1/19/34 10/29/36
s 10
usemtl blinn3SG
f 2/2/37 1/1/38 19/39/39
usemtl blinn2SG
f 3/3/40 2/2/37 19/39/39
usemtl blinn1SG
f 4/4/41 3/3/40 19/39/39
usemtl blinn3SG
f 5/5/42 4/4/41 19/39/39
usemtl blinn2SG
f 6/6/43 5/5/42 19/39/39
usemtl blinn1SG
f 7/7/44 6/6/43 19/39/39
usemtl blinn3SG
f 8/8/45 7/7/44 19/39/39
usemtl blinn2SG
f 9/9/46 8/8/45 19/39/39
usemtl blinn1SG
f 1/1/38 9/9/46 19/39/39
s 11
usemtl blinn3SG
f 10/37/47 11/36/48 20/40/49
usemtl blinn2SG
f 11/36/48 12/35/50 20/40/49
usemtl blinn1SG
f 12/35/50 13/34/51 20/40/49
usemtl blinn3SG
f 13/34/51 14/33/52 20/40/49
usemtl blinn2SG
f 14/33/52 15/32/53 20/40/49
usemtl blinn1SG
f 15/32/53 16/31/54 20/40/49
usemtl blinn3SG
f 16/31/54 17/30/55 20/40/49
usemtl blinn2SG
f 17/30/55 18/38/56 20/40/49
usemtl blinn1SG
f 18/38/56 10/37/47 20/40/49
