# This file uses centimeters as units for non-parametric coordinates.

mtllib model_slot_x100drum.mtl
g default
v -0.192165 -0.432818 -0.515812
v -0.192165 -0.000000 -0.673344
v -0.192165 0.432817 -0.515812
v -0.192165 0.663115 -0.116925
v -0.192165 0.583133 0.336672
v -0.192165 0.230297 0.632737
v -0.192165 -0.230297 0.632737
v -0.192165 -0.583133 0.336672
v -0.192165 -0.663115 -0.116925
v 0.192165 -0.432818 -0.515812
v 0.192165 -0.000000 -0.673344
v 0.192165 0.432817 -0.515812
v 0.192165 0.663115 -0.116925
v 0.192165 0.583133 0.336672
v 0.192165 0.230297 0.632737
v 0.192165 -0.230297 0.632737
v 0.192165 -0.583133 0.336672
v 0.192165 -0.663115 -0.116925
v -0.192165 -0.000000 0.000000
v 0.192165 0.000000 0.000000
vt 0.346350 0.117513
vt 0.310650 0.096902
vt 0.270054 0.104060
vt 0.243556 0.135639
vt 0.243556 0.176861
vt 0.270054 0.208440
vt 0.310650 0.215598
vt 0.346350 0.194987
vt 0.360450 0.156250
vt 0.001493 0.999207
vt 0.001449 0.887956
vt 0.001406 0.776704
vt 0.001363 0.665453
vt 0.001319 0.554202
vt 0.001276 0.442950
vt 0.001233 0.331699
vt 0.001190 0.220447
vt 0.001146 0.109196
vt 0.001103 -0.002055
vt 0.998897 1.002995
vt 0.998854 0.891744
vt 0.998810 0.780492
vt 0.998767 0.669241
vt 0.998724 0.557990
vt 0.998681 0.446738
vt 0.998637 0.335487
vt 0.998594 0.224235
vt 0.998551 0.112984
vt 0.998508 0.001733
vt 0.346236 0.806415
vt 0.311828 0.786550
vt 0.272701 0.793449
vt 0.247162 0.823885
vt 0.247162 0.863615
vt 0.272701 0.894051
vt 0.311828 0.900950
vt 0.346236 0.881085
vt 0.359824 0.843750
vt 0.300186 0.153839
vt 0.301742 0.841427
vn 0.000000 -0.342020 -0.939693
vn 0.000000 -0.342020 -0.939693
vn 0.000000 -0.342020 -0.939693
vn 0.000000 -0.342020 -0.939693
vn -0.000000 0.342020 -0.939693
vn -0.000000 0.342020 -0.939693
vn -0.000000 0.342020 -0.939693
vn -0.000000 0.342020 -0.939693
vn -0.000000 0.866025 -0.500000
vn -0.000000 0.866025 -0.500000
vn -0.000000 0.866025 -0.500000
vn -0.000000 0.866025 -0.500000
vn -0.000000 0.984808 0.173648
vn -0.000000 0.984808 0.173648
vn -0.000000 0.984808 0.173648
vn -0.000000 0.984808 0.173648
vn -0.000000 0.642788 0.766044
vn -0.000000 0.642788 0.766044
vn -0.000000 0.642788 0.766044
vn -0.000000 0.642788 0.766044
vn -0.000000 0.000000 1.000000
vn -0.000000 0.000000 1.000000
vn -0.000000 0.000000 1.000000
vn -0.000000 0.000000 1.000000
vn 0.000000 -0.642788 0.766045
vn 0.000000 -0.642788 0.766044
vn 0.000000 -0.642788 0.766044
vn 0.000000 -0.642788 0.766045
vn 0.000000 -0.984808 0.173648
vn 0.000000 -0.984808 0.173648
vn 0.000000 -0.984808 0.173648
vn 0.000000 -0.984808 0.173648
vn 0.000000 -0.866026 -0.500000
vn 0.000000 -0.866026 -0.500000
vn 0.000000 -0.866026 -0.500000
vn 0.000000 -0.866026 -0.500000
vn -1.000000 -0.000000 0.000000
vn -1.000000 -0.000000 0.000000
vn -1.000000 -0.000000 0.000000
vn -1.000000 -0.000000 0.000000
vn -1.000000 -0.000000 0.000000
vn -1.000000 -0.000000 0.000000
vn -1.000000 -0.000000 0.000000
vn -1.000000 -0.000000 0.000000
vn -1.000000 -0.000000 0.000000
vn -1.000000 -0.000000 0.000000
vn 1.000000 0.000000 -0.000000
vn 1.000000 -0.000000 0.000000
vn 1.000000 -0.000000 0.000000
vn 1.000000 -0.000000 0.000000
vn 1.000000 0.000000 -0.000000
vn 1.000000 0.000000 -0.000000
vn 1.000000 0.000000 -0.000000
vn 1.000000 0.000000 -0.000000
vn 1.000000 0.000000 -0.000000
vn 1.000000 0.000000 -0.000000
s 1
g pCylinder2
usemtl phong3SG
f 1/10/1 2/11/2 10/20/3
f 10/20/3 2/11/2 11/21/4
s 2
f 2/11/5 3/12/6 11/21/7
f 11/21/7 3/12/6 12/22/8
s 3
f 3/12/9 4/13/10 12/22/11
f 12/22/11 4/13/10 13/23/12
s 4
f 4/13/13 5/14/14 13/23/15
f 13/23/15 5/14/14 14/24/16
s 5
f 5/14/17 6/15/18 14/24/19
f 14/24/19 6/15/18 15/25/20
s 6
f 6/15/21 7/16/22 15/25/23
f 15/25/23 7/16/22 16/26/24
s 7
f 7/16/25 8/17/26 16/26/27
f 16/26/27 8/17/26 17/27/28
s 8
f 8/17/29 9/18/30 17/27/31
f 17/27/31 9/18/30 18/28/32
s 9
f 9/18/33 1/19/34 18/28/35
f 18/28/35 1/19/34 10/29/36
s 10
f 2/2/37 1/1/38 19/39/39
f 3/3/40 2/2/37 19/39/39
f 4/4/41 3/3/40 19/39/39
f 5/5/42 4/4/41 19/39/39
f 6/6/43 5/5/42 19/39/39
f 7/7/44 6/6/43 19/39/39
f 8/8/45 7/7/44 19/39/39
f 9/9/46 8/8/45 19/39/39
f 1/1/38 9/9/46 19/39/39
s 11
f 10/37/47 11/36/48 20/40/49
f 11/36/48 12/35/50 20/40/49
f 12/35/50 13/34/51 20/40/49
f 13/34/51 14/33/52 20/40/49
f 14/33/52 15/32/53 20/40/49
f 15/32/53 16/31/54 20/40/49
f 16/31/54 17/30/55 20/40/49
f 17/30/55 18/38/56 20/40/49
f 18/38/56 10/37/47 20/40/49
