# This file uses centimeters as units for non-parametric coordinates.

mtllib stage.mtl
g default
v 10.392305 0.000000 -6.000000
v 6.000000 0.000000 -10.392305
v 0.000000 0.000000 -12.000000
v -6.000000 0.000000 -10.392305
v -10.392305 0.000000 -6.000000
v -12.000000 0.000000 0.000000
v -10.392305 0.000000 6.000000
v -6.000000 0.000000 10.392305
v 0.000000 0.000000 12.000000
v 6.000000 0.000000 10.392305
v 10.392305 0.000000 6.000000
v 12.000000 0.000000 0.000000
v 10.392305 2.000000 -6.000000
v 6.000000 2.000000 -10.392305
v 0.000000 2.000000 -12.000000
v -6.000000 2.000000 -10.392305
v -10.392305 2.000000 -6.000000
v -12.000000 2.000000 0.000000
v -10.392305 2.000000 6.000000
v -6.000000 2.000000 10.392305
v 0.000000 2.000000 12.000000
v 6.000000 2.000000 10.392305
v 10.392305 2.000000 6.000000
v 12.000000 2.000000 0.000000
v 0.000000 0.000000 0.000000
v 0.000000 2.000000 0.000000
vt 0.635316 0.078125
vt 0.578125 0.020934
vt 0.500000 0.000000
vt 0.421875 0.020934
vt 0.364684 0.078125
vt 0.343750 0.156250
vt 0.364684 0.234375
vt 0.421875 0.291566
vt 0.500000 0.312500
vt 0.578125 0.291566
vt 0.635316 0.234375
vt 0.656250 0.156250
vt 0.375000 0.312500
vt 0.395833 0.312500
vt 0.416667 0.312500
vt 0.437500 0.312500
vt 0.458333 0.312500
vt 0.479167 0.312500
vt 0.500000 0.312500
vt 0.520833 0.312500
vt 0.541667 0.312500
vt 0.562500 0.312500
vt 0.583333 0.312500
vt 0.604167 0.312500
vt 0.625000 0.312500
vt 0.375000 0.688440
vt 0.395833 0.688440
vt 0.416667 0.688440
vt 0.437500 0.688440
vt 0.458333 0.688440
vt 0.479167 0.688440
vt 0.500000 0.688440
vt 0.520833 0.688440
vt 0.541667 0.688440
vt 0.562500 0.688440
vt 0.583333 0.688440
vt 0.604167 0.688440
vt 0.625000 0.688440
vt 0.635316 0.765625
vt 0.578125 0.708434
vt 0.500000 0.687500
vt 0.421875 0.708434
vt 0.364684 0.765625
vt 0.343750 0.843750
vt 0.364684 0.921875
vt 0.421875 0.979066
vt 0.500000 1.000000
vt 0.578125 0.979066
vt 0.635316 0.921875
vt 0.656250 0.843750
vt 0.500000 0.150000
vt 0.500000 0.837500
vn 0.707107 0.000000 -0.707107
vn 0.707107 0.000000 -0.707107
vn 0.707107 0.000000 -0.707107
vn 0.707107 0.000000 -0.707107
vn 0.258819 0.000000 -0.965926
vn 0.258819 0.000000 -0.965926
vn 0.258819 0.000000 -0.965926
vn 0.258819 0.000000 -0.965926
vn -0.258819 0.000000 -0.965926
vn -0.258819 0.000000 -0.965926
vn -0.258819 0.000000 -0.965926
vn -0.258819 0.000000 -0.965926
vn -0.707107 0.000000 -0.707107
vn -0.707107 0.000000 -0.707107
vn -0.707107 0.000000 -0.707107
vn -0.707107 0.000000 -0.707107
vn -0.965926 0.000000 -0.258819
vn -0.965926 0.000000 -0.258819
vn -0.965926 0.000000 -0.258819
vn -0.965926 0.000000 -0.258819
vn -0.965926 0.000000 0.258819
vn -0.965926 0.000000 0.258819
vn -0.965926 0.000000 0.258819
vn -0.965926 0.000000 0.258819
vn -0.707107 0.000000 0.707107
vn -0.707107 0.000000 0.707107
vn -0.707107 0.000000 0.707107
vn -0.707107 0.000000 0.707107
vn -0.258819 0.000000 0.965926
vn -0.258819 0.000000 0.965926
vn -0.258819 0.000000 0.965926
vn -0.258819 0.000000 0.965926
vn 0.258819 0.000000 0.965926
vn 0.258819 0.000000 0.965926
vn 0.258819 0.000000 0.965926
vn 0.258819 0.000000 0.965926
vn 0.707107 0.000000 0.707107
vn 0.707107 0.000000 0.707107
vn 0.707107 0.000000 0.707107
vn 0.707107 0.000000 0.707107
vn 0.965926 0.000000 0.258819
vn 0.965926 0.000000 0.258819
vn 0.965926 0.000000 0.258819
vn 0.965926 0.000000 0.258819
vn 0.965926 0.000000 -0.258819
vn 0.965926 0.000000 -0.258819
vn 0.965926 0.000000 -0.258819
vn 0.965926 0.000000 -0.258819
vn 0.000000 -1.000000 0.000000
vn 0.000000 -1.000000 0.000000
vn 0.000000 -1.000000 0.000000
vn 0.000000 -1.000000 0.000000
vn 0.000000 -1.000000 0.000000
vn 0.000000 -1.000000 0.000000
vn 0.000000 -1.000000 0.000000
vn 0.000000 -1.000000 0.000000
vn 0.000000 -1.000000 0.000000
vn 0.000000 -1.000000 0.000000
vn 0.000000 -1.000000 0.000000
vn 0.000000 -1.000000 0.000000
vn 0.000000 -1.000000 0.000000
vn 0.000000 1.000000 0.000000
vn 0.000000 1.000000 0.000000
vn 0.000000 1.000000 0.000000
vn 0.000000 1.000000 0.000000
vn 0.000000 1.000000 0.000000
vn 0.000000 1.000000 0.000000
vn 0.000000 1.000000 0.000000
vn 0.000000 1.000000 0.000000
vn 0.000000 1.000000 0.000000
vn 0.000000 1.000000 0.000000
vn 0.000000 1.000000 0.000000
vn 0.000000 1.000000 0.000000
vn 0.000000 1.000000 0.000000
s 1
g stagebase1
usemtl phong2SG
f 1/13/1 2/14/2 13/26/3
f 13/26/3 2/14/2 14/27/4
s 2
f 2/14/5 3/15/6 14/27/7
f 14/27/7 3/15/6 15/28/8
s 3
f 3/15/9 4/16/10 15/28/11
f 15/28/11 4/16/10 16/29/12
s 4
f 4/16/13 5/17/14 16/29/15
f 16/29/15 5/17/14 17/30/16
s 5
f 5/17/17 6/18/18 17/30/19
f 17/30/19 6/18/18 18/31/20
s 6
f 6/18/21 7/19/22 18/31/23
f 18/31/23 7/19/22 19/32/24
s 7
f 7/19/25 8/20/26 19/32/27
f 19/32/27 8/20/26 20/33/28
s 8
f 8/20/29 9/21/30 20/33/31
f 20/33/31 9/21/30 21/34/32
s 9
f 9/21/33 10/22/34 21/34/35
f 21/34/35 10/22/34 22/35/36
s 10
f 10/22/37 11/23/38 22/35/39
f 22/35/39 11/23/38 23/36/40
s 11
f 11/23/41 12/24/42 23/36/43
f 23/36/43 12/24/42 24/37/44
s 12
f 12/24/45 1/25/46 24/37/47
f 24/37/47 1/25/46 13/38/48
s 13
f 2/2/49 1/1/50 25/51/51
f 3/3/52 2/2/49 25/51/51
f 4/4/53 3/3/52 25/51/51
f 5/5/54 4/4/53 25/51/51
f 6/6/55 5/5/54 25/51/51
f 7/7/56 6/6/55 25/51/51
f 8/8/57 7/7/56 25/51/51
f 9/9/58 8/8/57 25/51/51
f 10/10/59 9/9/58 25/51/51
f 11/11/60 10/10/59 25/51/51
f 12/12/61 11/11/60 25/51/51
f 1/1/50 12/12/61 25/51/51
s 14
f 13/49/62 14/48/63 26/52/64
f 14/48/63 15/47/65 26/52/64
f 15/47/65 16/46/66 26/52/64
f 16/46/66 17/45/67 26/52/64
f 17/45/67 18/44/68 26/52/64
f 18/44/68 19/43/69 26/52/64
f 19/43/69 20/42/70 26/52/64
f 20/42/70 21/41/71 26/52/64
f 21/41/71 22/40/72 26/52/64
f 22/40/72 23/39/73 26/52/64
f 23/39/73 24/50/74 26/52/64
f 24/50/74 13/49/62 26/52/64
g default
v 8.660254 2.000000 -5.000000
v 5.000000 2.000000 -8.660254
v 0.000000 2.000000 -10.000000
v -5.000000 2.000000 -8.660254
v -8.660254 2.000000 -5.000000
v -10.000000 2.000000 0.000000
v -8.660254 2.000000 5.000000
v -5.000000 2.000000 8.660254
v 0.000000 2.000000 10.000000
v 5.000000 2.000000 8.660254
v 8.660254 2.000000 5.000000
v 10.000000 2.000000 0.000000
v 8.660254 4.000000 -5.000000
v 5.000000 4.000000 -8.660254
v 0.000000 4.000000 -10.000000
v -5.000000 4.000000 -8.660254
v -8.660254 4.000000 -5.000000
v -10.000000 4.000000 0.000000
v -8.660254 4.000000 5.000000
v -5.000000 4.000000 8.660254
v 0.000000 4.000000 10.000000
v 5.000000 4.000000 8.660254
v 8.660254 4.000000 5.000000
v 10.000000 4.000000 0.000000
v 0.000000 2.000000 0.000000
v 0.000000 4.000000 0.000000
vt 0.635316 0.078125
vt 0.578125 0.020934
vt 0.500000 0.000000
vt 0.421875 0.020934
vt 0.364684 0.078125
vt 0.343750 0.156250
vt 0.364684 0.234375
vt 0.421875 0.291566
vt 0.500000 0.312500
vt 0.578125 0.291566
vt 0.635316 0.234375
vt 0.656250 0.156250
vt 0.375000 0.312500
vt 0.395833 0.312500
vt 0.416667 0.312500
vt 0.437500 0.312500
vt 0.458333 0.312500
vt 0.479167 0.312500
vt 0.500000 0.312500
vt 0.520833 0.312500
vt 0.541667 0.312500
vt 0.562500 0.312500
vt 0.583333 0.312500
vt 0.604167 0.312500
vt 0.625000 0.312500
vt 0.375000 0.688440
vt 0.395833 0.688440
vt 0.416667 0.688440
vt 0.437500 0.688440
vt 0.458333 0.688440
vt 0.479167 0.688440
vt 0.500000 0.688440
vt 0.520833 0.688440
vt 0.541667 0.688440
vt 0.562500 0.688440
vt 0.583333 0.688440
vt 0.604167 0.688440
vt 0.625000 0.688440
vt 0.635316 0.765625
vt 0.578125 0.708434
vt 0.500000 0.687500
vt 0.421875 0.708434
vt 0.364684 0.765625
vt 0.343750 0.843750
vt 0.364684 0.921875
vt 0.421875 0.979066
vt 0.500000 1.000000
vt 0.578125 0.979066
vt 0.635316 0.921875
vt 0.656250 0.843750
vt 0.500000 0.150000
vt 0.500000 0.837500
vn 0.707107 0.000000 -0.707107
vn 0.707107 0.000000 -0.707107
vn 0.707107 0.000000 -0.707107
vn 0.707107 0.000000 -0.707107
vn 0.258819 0.000000 -0.965926
vn 0.258819 0.000000 -0.965926
vn 0.258819 0.000000 -0.965926
vn 0.258819 0.000000 -0.965926
vn -0.258819 0.000000 -0.965926
vn -0.258819 0.000000 -0.965926
vn -0.258819 0.000000 -0.965926
vn -0.258819 0.000000 -0.965926
vn -0.707107 0.000000 -0.707107
vn -0.707107 0.000000 -0.707107
vn -0.707107 0.000000 -0.707107
vn -0.707107 0.000000 -0.707107
vn -0.965926 0.000000 -0.258819
vn -0.965926 0.000000 -0.258819
vn -0.965926 0.000000 -0.258819
vn -0.965926 0.000000 -0.258819
vn -0.965926 0.000000 0.258819
vn -0.965926 0.000000 0.258819
vn -0.965926 0.000000 0.258819
vn -0.965926 0.000000 0.258819
vn -0.707107 0.000000 0.707107
vn -0.707107 0.000000 0.707107
vn -0.707107 0.000000 0.707107
vn -0.707107 0.000000 0.707107
vn -0.258819 0.000000 0.965926
vn -0.258819 0.000000 0.965926
vn -0.258819 0.000000 0.965926
vn -0.258819 0.000000 0.965926
vn 0.258819 0.000000 0.965926
vn 0.258819 0.000000 0.965926
vn 0.258819 0.000000 0.965926
vn 0.258819 0.000000 0.965926
vn 0.707107 0.000000 0.707107
vn 0.707107 0.000000 0.707107
vn 0.707107 0.000000 0.707107
vn 0.707107 0.000000 0.707107
vn 0.965926 0.000000 0.258819
vn 0.965926 0.000000 0.258819
vn 0.965926 0.000000 0.258819
vn 0.965926 0.000000 0.258819
vn 0.965926 0.000000 -0.258819
vn 0.965926 0.000000 -0.258819
vn 0.965926 0.000000 -0.258819
vn 0.965926 0.000000 -0.258819
vn 0.000000 -1.000000 0.000000
vn 0.000000 -1.000000 0.000000
vn 0.000000 -1.000000 0.000000
vn 0.000000 -1.000000 0.000000
vn 0.000000 -1.000000 0.000000
vn 0.000000 -1.000000 0.000000
vn 0.000000 -1.000000 0.000000
vn 0.000000 -1.000000 0.000000
vn 0.000000 -1.000000 0.000000
vn 0.000000 -1.000000 0.000000
vn 0.000000 -1.000000 0.000000
vn 0.000000 -1.000000 0.000000
vn 0.000000 -1.000000 0.000000
vn 0.000000 1.000000 0.000000
vn 0.000000 1.000000 0.000000
vn 0.000000 1.000000 0.000000
vn 0.000000 1.000000 0.000000
vn 0.000000 1.000000 0.000000
vn 0.000000 1.000000 0.000000
vn 0.000000 1.000000 0.000000
vn 0.000000 1.000000 0.000000
vn 0.000000 1.000000 0.000000
vn 0.000000 1.000000 0.000000
vn 0.000000 1.000000 0.000000
vn 0.000000 1.000000 0.000000
vn 0.000000 1.000000 0.000000
s 1
g stagebase2
usemtl phong2SG
f 27/65/75 28/66/76 39/78/77
f 39/78/77 28/66/76 40/79/78
s 2
f 28/66/79 29/67/80 40/79/81
f 40/79/81 29/67/80 41/80/82
s 3
f 29/67/83 30/68/84 41/80/85
f 41/80/85 30/68/84 42/81/86
s 4
f 30/68/87 31/69/88 42/81/89
f 42/81/89 31/69/88 43/82/90
s 5
f 31/69/91 32/70/92 43/82/93
f 43/82/93 32/70/92 44/83/94
s 6
f 32/70/95 33/71/96 44/83/97
f 44/83/97 33/71/96 45/84/98
s 7
f 33/71/99 34/72/100 45/84/101
f 45/84/101 34/72/100 46/85/102
s 8
f 34/72/103 35/73/104 46/85/105
f 46/85/105 35/73/104 47/86/106
s 9
f 35/73/107 36/74/108 47/86/109
f 47/86/109 36/74/108 48/87/110
s 10
f 36/74/111 37/75/112 48/87/113
f 48/87/113 37/75/112 49/88/114
s 11
f 37/75/115 38/76/116 49/88/117
f 49/88/117 38/76/116 50/89/118
s 12
f 38/76/119 27/77/120 50/89/121
f 50/89/121 27/77/120 39/90/122
s 13
f 28/54/123 27/53/124 51/103/125
f 29/55/126 28/54/123 51/103/125
f 30/56/127 29/55/126 51/103/125
f 31/57/128 30/56/127 51/103/125
f 32/58/129 31/57/128 51/103/125
f 33/59/130 32/58/129 51/103/125
f 34/60/131 33/59/130 51/103/125
f 35/61/132 34/60/131 51/103/125
f 36/62/133 35/61/132 51/103/125
f 37/63/134 36/62/133 51/103/125
f 38/64/135 37/63/134 51/103/125
f 27/53/124 38/64/135 51/103/125
s 14
f 39/101/136 40/100/137 52/104/138
f 40/100/137 41/99/139 52/104/138
f 41/99/139 42/98/140 52/104/138
f 42/98/140 43/97/141 52/104/138
f 43/97/141 44/96/142 52/104/138
f 44/96/142 45/95/143 52/104/138
f 45/95/143 46/94/144 52/104/138
f 46/94/144 47/93/145 52/104/138
f 47/93/145 48/92/146 52/104/138
f 48/92/146 49/91/147 52/104/138
f 49/91/147 50/102/148 52/104/138
f 50/102/148 39/101/136 52/104/138
g default
v 11.691343 0.000000 -6.750000
v 11.691343 0.000000 6.750000
v 13.500000 0.000000 0.000000
v 11.691343 0.500000 -6.750000
v 11.691343 0.500000 6.750000
v 13.500000 0.500000 0.000000
v 0.000000 0.000000 0.000000
v 0.000000 0.500000 0.000000
vt 0.635316 0.078125
vt 0.635316 0.234375
vt 0.656250 0.156250
vt 0.583333 0.312500
vt 0.604167 0.312500
vt 0.625000 0.312500
vt 0.583333 0.688440
vt 0.604167 0.688440
vt 0.625000 0.688440
vt 0.635316 0.765625
vt 0.635316 0.921875
vt 0.656250 0.843750
vt 0.500000 0.150000
vt 0.500000 0.837500
vn 0.965926 0.000000 0.258819
vn 0.965926 0.000000 0.258819
vn 0.965926 0.000000 0.258819
vn 0.965926 0.000000 0.258819
vn 0.965926 0.000000 -0.258819
vn 0.965926 0.000000 -0.258819
vn 0.965926 0.000000 -0.258819
vn 0.965926 0.000000 -0.258819
vn 0.000000 -1.000000 0.000000
vn 0.000000 -1.000000 0.000000
vn 0.000000 -1.000000 0.000000
vn 0.000000 -1.000000 0.000000
vn 0.000000 1.000000 0.000000
vn 0.000000 1.000000 0.000000
vn 0.000000 1.000000 0.000000
vn 0.000000 1.000000 0.000000
s 1
g stagebase_stair1
usemtl phong1SG
f 54/108/149 55/109/150 57/111/151
f 57/111/151 55/109/150 58/112/152
s 2
f 55/109/153 53/110/154 58/112/155
f 58/112/155 53/110/154 56/113/156
s 3
f 55/107/157 54/106/158 59/117/159
f 53/105/160 55/107/157 59/117/159
s 4
f 57/114/161 58/116/162 60/118/163
f 58/116/162 56/115/164 60/118/163
g default
v 11.258330 0.500000 -6.500000
v 11.258330 0.500000 6.500000
v 13.000000 0.500000 0.000000
v 11.258330 1.000000 -6.500000
v 11.258330 1.000000 6.500000
v 13.000000 1.000000 0.000000
v 0.000000 0.500000 0.000000
v 0.000000 1.000000 0.000000
vt 0.635316 0.078125
vt 0.635316 0.234375
vt 0.656250 0.156250
vt 0.583333 0.312500
vt 0.604167 0.312500
vt 0.625000 0.312500
vt 0.583333 0.688440
vt 0.604167 0.688440
vt 0.625000 0.688440
vt 0.635316 0.765625
vt 0.635316 0.921875
vt 0.656250 0.843750
vt 0.500000 0.150000
vt 0.500000 0.837500
vn 0.965926 0.000000 0.258819
vn 0.965926 0.000000 0.258819
vn 0.965926 0.000000 0.258819
vn 0.965926 0.000000 0.258819
vn 0.965926 0.000000 -0.258819
vn 0.965926 0.000000 -0.258819
vn 0.965926 0.000000 -0.258819
vn 0.965926 0.000000 -0.258819
vn 0.000000 -1.000000 0.000000
vn 0.000000 -1.000000 0.000000
vn 0.000000 -1.000000 0.000000
vn 0.000000 -1.000000 0.000000
vn 0.000000 1.000000 0.000000
vn 0.000000 1.000000 0.000000
vn 0.000000 1.000000 0.000000
vn 0.000000 1.000000 0.000000
s 1
g stagebase_stair2
usemtl phong1SG
f 62/122/165 63/123/166 65/125/167
f 65/125/167 63/123/166 66/126/168
s 2
f 63/123/169 61/124/170 66/126/171
f 66/126/171 61/124/170 64/127/172
s 3
f 63/121/173 62/120/174 67/131/175
f 61/119/176 63/121/173 67/131/175
s 4
f 65/128/177 66/130/178 68/132/179
f 66/130/178 64/129/180 68/132/179
g default
v 10.825317 1.000000 -6.250000
v 10.825317 1.000000 6.250000
v 12.500000 1.000000 0.000000
v 10.825317 1.500000 -6.250000
v 10.825317 1.500000 6.250000
v 12.500000 1.500000 0.000000
v 0.000000 1.000000 0.000000
v 0.000000 1.500000 0.000000
vt 0.635316 0.078125
vt 0.635316 0.234375
vt 0.656250 0.156250
vt 0.583333 0.312500
vt 0.604167 0.312500
vt 0.625000 0.312500
vt 0.583333 0.688440
vt 0.604167 0.688440
vt 0.625000 0.688440
vt 0.635316 0.765625
vt 0.635316 0.921875
vt 0.656250 0.843750
vt 0.500000 0.150000
vt 0.500000 0.837500
vn 0.965926 0.000000 0.258819
vn 0.965926 0.000000 0.258819
vn 0.965926 0.000000 0.258819
vn 0.965926 0.000000 0.258819
vn 0.965926 0.000000 -0.258819
vn 0.965926 0.000000 -0.258819
vn 0.965926 0.000000 -0.258819
vn 0.965926 0.000000 -0.258819
vn 0.000000 -1.000000 0.000000
vn 0.000000 -1.000000 0.000000
vn 0.000000 -1.000000 0.000000
vn 0.000000 -1.000000 0.000000
vn 0.000000 1.000000 0.000000
vn 0.000000 1.000000 0.000000
vn 0.000000 1.000000 0.000000
vn 0.000000 1.000000 0.000000
s 1
g stagebase_stair3
usemtl phong1SG
f 70/136/181 71/137/182 73/139/183
f 73/139/183 71/137/182 74/140/184
s 2
f 71/137/185 69/138/186 74/140/187
f 74/140/187 69/138/186 72/141/188
s 3
f 71/135/189 70/134/190 75/145/191
f 69/133/192 71/135/189 75/145/191
s 4
f 73/142/193 74/144/194 76/146/195
f 74/144/194 72/143/196 76/146/195
g default
v 9.959292 2.000000 -5.750000
v 9.959292 2.000000 5.750000
v 11.500000 2.000000 0.000000
v 9.959292 2.500000 -5.750000
v 9.959292 2.500000 5.750000
v 11.500000 2.500000 0.000000
v 0.000000 2.000000 0.000000
v 0.000000 2.500000 0.000000
vt 0.635316 0.078125
vt 0.635316 0.234375
vt 0.656250 0.156250
vt 0.583333 0.312500
vt 0.604167 0.312500
vt 0.625000 0.312500
vt 0.583333 0.688440
vt 0.604167 0.688440
vt 0.625000 0.688440
vt 0.635316 0.765625
vt 0.635316 0.921875
vt 0.656250 0.843750
vt 0.500000 0.150000
vt 0.500000 0.837500
vn 0.965926 0.000000 0.258819
vn 0.965926 0.000000 0.258819
vn 0.965926 0.000000 0.258819
vn 0.965926 0.000000 0.258819
vn 0.965926 0.000000 -0.258819
vn 0.965926 0.000000 -0.258819
vn 0.965926 0.000000 -0.258819
vn 0.965926 0.000000 -0.258819
vn 0.000000 -1.000000 0.000000
vn 0.000000 -1.000000 0.000000
vn 0.000000 -1.000000 0.000000
vn 0.000000 -1.000000 0.000000
vn 0.000000 1.000000 0.000000
vn 0.000000 1.000000 0.000000
vn 0.000000 1.000000 0.000000
vn 0.000000 1.000000 0.000000
s 1
g stagebase_stair4
usemtl phong1SG
f 78/150/197 79/151/198 81/153/199
f 81/153/199 79/151/198 82/154/200
s 2
f 79/151/201 77/152/202 82/154/203
f 82/154/203 77/152/202 80/155/204
s 3
f 79/149/205 78/148/206 83/159/207
f 77/147/208 79/149/205 83/159/207
s 4
f 81/156/209 82/158/210 84/160/211
f 82/158/210 80/157/212 84/160/211
g default
v 9.526279 2.500000 -5.500000
v 9.526279 2.500000 5.500000
v 11.000000 2.500000 0.000000
v 9.526279 3.000000 -5.500000
v 9.526279 3.000000 5.500000
v 11.000000 3.000000 0.000000
v 0.000000 2.500000 0.000000
v 0.000000 3.000000 0.000000
vt 0.635316 0.078125
vt 0.635316 0.234375
vt 0.656250 0.156250
vt 0.583333 0.312500
vt 0.604167 0.312500
vt 0.625000 0.312500
vt 0.583333 0.688440
vt 0.604167 0.688440
vt 0.625000 0.688440
vt 0.635316 0.765625
vt 0.635316 0.921875
vt 0.656250 0.843750
vt 0.500000 0.150000
vt 0.500000 0.837500
vn 0.965926 0.000000 0.258819
vn 0.965926 0.000000 0.258819
vn 0.965926 0.000000 0.258819
vn 0.965926 0.000000 0.258819
vn 0.965926 0.000000 -0.258819
vn 0.965926 0.000000 -0.258819
vn 0.965926 0.000000 -0.258819
vn 0.965926 0.000000 -0.258819
vn 0.000000 -1.000000 0.000000
vn 0.000000 -1.000000 0.000000
vn 0.000000 -1.000000 0.000000
vn 0.000000 -1.000000 0.000000
vn 0.000000 1.000000 0.000000
vn 0.000000 1.000000 0.000000
vn 0.000000 1.000000 0.000000
vn 0.000000 1.000000 0.000000
s 1
g stagebase_stair5
usemtl phong1SG
f 86/164/213 87/165/214 89/167/215
f 89/167/215 87/165/214 90/168/216
s 2
f 87/165/217 85/166/218 90/168/219
f 90/168/219 85/166/218 88/169/220
s 3
f 87/163/221 86/162/222 91/173/223
f 85/161/224 87/163/221 91/173/223
s 4
f 89/170/225 90/172/226 92/174/227
f 90/172/226 88/171/228 92/174/227
g default
v 9.093267 3.000000 -5.250000
v 9.093267 3.000000 5.250000
v 10.500000 3.000000 0.000000
v 9.093267 3.500000 -5.250000
v 9.093267 3.500000 5.250000
v 10.500000 3.500000 0.000000
v 0.000000 3.000000 0.000000
v 0.000000 3.500000 0.000000
vt 0.635316 0.078125
vt 0.635316 0.234375
vt 0.656250 0.156250
vt 0.583333 0.312500
vt 0.604167 0.312500
vt 0.625000 0.312500
vt 0.583333 0.688440
vt 0.604167 0.688440
vt 0.625000 0.688440
vt 0.635316 0.765625
vt 0.635316 0.921875
vt 0.656250 0.843750
vt 0.500000 0.150000
vt 0.500000 0.837500
vn 0.965926 0.000000 0.258819
vn 0.965926 0.000000 0.258819
vn 0.965926 0.000000 0.258819
vn 0.965926 0.000000 0.258819
vn 0.965926 0.000000 -0.258819
vn 0.965926 0.000000 -0.258819
vn 0.965926 0.000000 -0.258819
vn 0.965926 0.000000 -0.258819
vn 0.000000 -1.000000 0.000000
vn 0.000000 -1.000000 0.000000
vn 0.000000 -1.000000 0.000000
vn 0.000000 -1.000000 0.000000
vn 0.000000 1.000000 0.000000
vn 0.000000 1.000000 0.000000
vn 0.000000 1.000000 0.000000
vn 0.000000 1.000000 0.000000
s 1
g stagebase_stair6
usemtl phong1SG
f 94/178/229 95/179/230 97/181/231
f 97/181/231 95/179/230 98/182/232
s 2
f 95/179/233 93/180/234 98/182/235
f 98/182/235 93/180/234 96/183/236
s 3
f 95/177/237 94/176/238 99/187/239
f 93/175/240 95/177/237 99/187/239
s 4
f 97/184/241 98/186/242 100/188/243
f 98/186/242 96/185/244 100/188/243
g default
v 10.400965 1.501000 -6.005000
v 10.400965 1.501000 6.005000
v 12.010000 1.501000 0.000000
v 10.400965 2.001000 -6.005000
v 10.400965 2.001000 6.005000
v 12.010000 2.001000 0.000000
v 0.000000 1.501000 0.000000
v 0.000000 2.001000 0.000000
vt 0.635316 0.078125
vt 0.635316 0.234375
vt 0.656250 0.156250
vt 0.583333 0.312500
vt 0.604167 0.312500
vt 0.625000 0.312500
vt 0.583333 0.688440
vt 0.604167 0.688440
vt 0.625000 0.688440
vt 0.635316 0.765625
vt 0.635316 0.921875
vt 0.656250 0.843750
vt 0.500000 0.150000
vt 0.500000 0.837500
vn 0.965926 0.000000 0.258819
vn 0.965926 0.000000 0.258819
vn 0.965926 0.000000 0.258819
vn 0.965926 0.000000 0.258819
vn 0.965926 0.000000 -0.258819
vn 0.965926 0.000000 -0.258819
vn 0.965926 0.000000 -0.258819
vn 0.965926 0.000000 -0.258819
vn 0.000000 -1.000000 0.000000
vn 0.000000 -1.000000 0.000000
vn 0.000000 -1.000000 0.000000
vn 0.000000 -1.000000 0.000000
vn 0.000000 1.000000 0.000000
vn 0.000000 1.000000 0.000000
vn 0.000000 1.000000 0.000000
vn 0.000000 1.000000 0.000000
s 1
g stagebase_stair7
usemtl phong1SG
f 102/192/245 103/193/246 105/195/247
f 105/195/247 103/193/246 106/196/248
s 2
f 103/193/249 101/194/250 106/196/251
f 106/196/251 101/194/250 104/197/252
s 3
f 103/191/253 102/190/254 107/201/255
f 101/189/256 103/191/253 107/201/255
s 4
f 105/198/257 106/200/258 108/202/259
f 106/200/258 104/199/260 108/202/259
